<svg width="1312" height="371" viewBox="0 0 1312 371" fill="none" xmlns="http://www.w3.org/2000/svg">
<g filter="url(#filter0_f_573_60)">
<mask id="path-1-outside-1_573_60" maskUnits="userSpaceOnUse" x="16.1992" y="32.5059" width="1279" height="310" fill="black">
<rect fill="white" x="16.1992" y="32.5059" width="1279" height="310"/>
<path d="M1147.43 225.969C1147.43 219.385 1152.73 214.029 1159.32 213.988C1178.9 213.867 1198.48 213.898 1218.06 214.08C1230.86 214.19 1242.55 215.94 1253.12 219.331C1263.7 222.613 1271.98 227.153 1277.95 232.95C1284.09 238.639 1287.16 245.093 1287.16 252.312C1287.16 258.219 1285.54 263.579 1282.3 268.393C1279.23 273.096 1274.71 276.98 1268.74 280.043C1260.98 284.14 1257.37 295.185 1263.64 301.321L1276.37 313.778C1284.06 321.299 1278.73 334.355 1267.98 334.355H1261.85C1258.57 334.355 1255.43 333.011 1253.16 330.636L1211.62 287.057C1205.7 280.851 1210.26 270.454 1218.83 270.198C1228.22 270.089 1235.47 268.502 1240.58 265.439C1245.87 262.267 1248.52 257.891 1248.52 252.312C1248.52 249.031 1247.07 246.077 1244.17 243.452C1241.44 240.717 1237.51 238.53 1232.4 236.889C1227.45 235.138 1221.82 234.263 1215.5 234.263C1209.75 234.187 1202.75 234.138 1194.49 234.115C1187.86 234.096 1182.49 239.471 1182.49 246.099V322.355C1182.49 328.983 1177.12 334.355 1170.49 334.355H1159.43C1152.8 334.355 1147.43 328.983 1147.43 322.355V225.969ZM427.79 209.506C442.463 209.506 455.088 211.202 465.666 214.593C469.763 215.864 473.552 217.397 477.035 219.193C484.588 223.088 482.66 233.128 474.769 236.284L470.445 238.014C466.123 239.743 461.275 238.656 457.272 236.282C454.609 234.704 451.692 233.436 448.52 232.479C442.889 230.728 436.235 229.853 428.558 229.853C420.539 229.853 414.226 230.892 409.619 232.971C405.183 234.94 402.966 237.784 402.966 241.503C402.966 245.332 405.951 248.668 411.923 251.512C417.894 254.356 427.278 257.365 440.074 260.537C459.354 265.35 473.771 270.983 483.325 277.438C492.88 283.782 497.656 291.44 497.656 300.41C497.656 306.645 494.926 312.333 489.467 317.475C484.178 322.507 476.415 326.554 466.179 329.617C456.113 332.571 444.169 334.048 430.35 334.048C418.065 334.048 406.975 332.68 397.079 329.945C387.184 327.211 379.079 323.601 372.767 319.116C370.921 317.773 369.25 316.392 367.754 314.974C362.53 310.02 366.092 302.36 373.041 300.477L382.121 298.016C387.567 296.54 393.171 299.287 397.356 303.071C399.771 305.254 402.664 307.156 406.037 308.778C413.032 311.951 421.137 313.537 430.35 313.537C439.733 313.537 446.899 312.388 451.847 310.091C456.794 307.684 459.268 304.239 459.269 299.754C459.269 294.831 456.539 290.784 451.079 287.611C445.619 284.439 436.15 281.266 422.672 278.094C402.71 273.281 388.378 268.03 379.677 262.342C370.975 256.544 366.625 249.379 366.625 240.847C366.625 234.83 369.013 229.469 373.79 224.766C378.738 219.952 385.819 216.234 395.032 213.608C404.245 210.874 415.165 209.506 427.79 209.506ZM705.413 209.506C721.963 209.506 737.063 211.858 750.712 216.562C757.561 218.867 763.809 221.586 769.455 224.718C777.036 228.923 775.64 239.322 767.758 242.932L764.173 244.574C760.141 246.421 755.46 245.827 751.711 243.458C746.277 240.024 740.569 237.349 734.589 235.432C726.399 232.697 716.674 231.329 705.413 231.329C694.835 231.329 684.94 233.025 675.727 236.416C666.684 239.698 659.348 244.456 653.718 250.691C648.258 256.817 645.527 263.874 645.527 271.859C645.527 280.173 648.258 287.338 653.718 293.354C659.177 299.371 666.428 303.911 675.471 306.974C684.684 310.037 694.665 311.568 705.413 311.568C715.309 311.568 724.181 310.474 732.029 308.286C740.048 306.098 746.532 302.981 751.479 298.934C752.17 298.388 752.825 297.829 753.444 297.257C759.069 292.06 753.704 284.657 746.045 284.657H711.137C704.161 284.657 699.436 277.552 702.135 271.118C703.656 267.492 707.205 265.132 711.137 265.132H789.039C794.465 265.132 799.107 269.23 798.825 274.648C798.484 286.244 794.475 296.527 786.797 305.497C779.119 314.467 768.285 321.468 754.295 326.5C740.305 331.532 724.01 334.048 705.413 334.048C685.963 334.048 668.817 331.313 653.974 325.844C639.13 320.374 627.699 312.935 619.68 303.527C611.661 294.01 607.651 283.455 607.651 271.859C607.651 260.483 611.746 250.036 619.936 240.519C628.125 231.002 639.642 223.453 654.485 217.874C669.329 212.295 686.305 209.506 705.413 209.506ZM24.1992 223.64C24.1992 217.077 29.4722 211.728 36.0355 211.664C56.326 211.464 77.0347 211.456 98.1611 211.639C116.758 211.748 132.881 214.265 146.53 219.188C160.179 224.11 170.586 230.947 177.752 239.698C185.088 248.449 188.757 258.622 188.757 270.218C188.757 282.141 185.857 292.643 180.056 301.723C174.255 310.802 164.615 318.077 151.137 323.547C137.658 328.907 119.914 331.696 97.9043 331.915C75.9889 332.096 55.3623 332.09 36.0247 331.896C29.4652 331.83 24.1992 326.483 24.1992 319.923V223.64ZM324.422 221.894C324.422 227.558 319.83 232.149 314.167 232.149H260.669C254.042 232.149 248.669 237.522 248.669 244.149V247.552C248.669 254.179 254.042 259.552 260.669 259.552H291.892C297.42 259.552 301.901 264.033 301.901 269.561C301.901 275.089 297.42 279.57 291.892 279.57H260.669C254.042 279.57 248.669 284.943 248.669 291.57V298.747C248.669 305.374 254.042 310.747 260.669 310.747H313.838C319.683 310.747 324.422 315.485 324.422 321.331C324.422 327.176 319.683 331.914 313.838 331.914H223.049C216.421 331.914 211.049 326.541 211.049 319.914V223.639C211.049 217.011 216.421 211.639 223.049 211.639H314.167C319.83 211.639 324.422 216.23 324.422 221.894ZM559.409 319.914C559.409 326.541 554.037 331.914 547.409 331.914H535.58C528.953 331.914 523.58 326.541 523.58 319.914V223.639C523.58 217.011 528.953 211.639 535.58 211.639H547.409C554.037 211.639 559.409 217.011 559.409 223.639V319.914ZM926.486 281.069C930.933 285.844 938.918 282.478 938.605 275.961V223.639C938.605 217.011 943.978 211.639 950.605 211.639H963.714C970.341 211.639 975.714 217.011 975.714 223.639V319.914C975.714 326.541 970.341 331.914 963.714 331.914H939.487C936.151 331.914 932.965 330.525 930.694 328.08L869.839 262.557C865.423 257.801 857.474 261.108 857.733 267.593V319.914C857.733 326.541 852.361 331.914 845.733 331.914H832.599C825.982 331.914 820.614 326.557 820.6 319.94L820.395 223.664C820.381 217.027 825.757 211.639 832.395 211.639H856.606C859.936 211.639 863.117 213.023 865.387 215.461L926.486 281.069ZM1127.24 221.894C1127.24 227.558 1122.64 232.149 1116.98 232.149H1063.48C1056.86 232.149 1051.48 237.522 1051.48 244.149V247.552C1051.48 254.179 1056.86 259.552 1063.48 259.552H1094.71C1100.23 259.552 1104.72 264.033 1104.72 269.561C1104.72 275.089 1100.23 279.57 1094.71 279.57H1063.48C1056.86 279.57 1051.48 284.943 1051.48 291.57V298.747C1051.48 305.374 1056.86 310.747 1063.48 310.747H1116.65C1122.5 310.747 1127.24 315.485 1127.24 321.331C1127.24 327.176 1122.5 331.914 1116.65 331.914H1025.86C1019.24 331.914 1013.86 326.541 1013.86 319.914V223.639C1013.86 217.011 1019.24 211.639 1025.86 211.639H1116.98C1122.64 211.639 1127.24 216.23 1127.24 221.894ZM96.3691 232.314C89.6351 232.163 82.001 232.09 73.4671 232.096C66.8776 232.101 61.5635 237.464 61.5635 244.053V298.912C61.5635 305.54 66.9369 310.915 73.5643 310.895C81.7425 310.872 89.0884 310.823 95.6016 310.748C115.905 310.529 130.151 306.755 138.341 299.426C146.53 292.097 150.625 282.36 150.625 270.218C150.625 262.232 148.236 255.45 143.459 249.871C138.852 244.183 132.454 239.862 124.265 236.908C116.075 233.955 106.777 232.424 96.3691 232.314ZM398.258 40.5059C414.807 40.5059 429.907 42.8577 443.557 47.5615C450.406 49.8671 456.654 52.5858 462.3 55.7178C469.881 59.9228 468.484 70.3222 460.603 73.9318L457.016 75.5743C452.985 77.4206 448.304 76.827 444.555 74.4583C439.121 71.0244 433.414 68.3488 427.434 66.4316C419.244 63.6969 409.518 62.3291 398.258 62.3291C387.68 62.3291 377.784 64.0249 368.571 67.416C359.529 70.6978 352.192 75.4561 346.562 81.6914C341.102 87.8173 338.372 94.8738 338.372 102.859C338.372 111.173 341.102 118.338 346.562 124.354C352.021 130.371 359.273 134.911 368.315 137.974C377.528 141.037 387.509 142.568 398.258 142.568C408.153 142.568 417.026 141.474 424.874 139.286C432.893 137.098 439.376 133.981 444.324 129.934C445.015 129.388 445.669 128.829 446.289 128.257C451.914 123.06 446.549 115.657 438.89 115.657H403.982C397.006 115.657 392.281 108.552 394.979 102.118C396.5 98.4917 400.049 96.1318 403.982 96.1318H481.883C487.31 96.1318 491.952 100.23 491.67 105.648C491.329 117.244 487.319 127.527 479.642 136.497C471.964 145.467 461.13 152.468 447.14 157.5C433.149 162.532 416.855 165.048 398.258 165.048C378.808 165.048 361.661 162.313 346.817 156.844C331.974 151.374 320.543 143.935 312.524 134.527C304.506 125.01 300.496 114.455 300.496 102.859C300.496 91.4827 304.591 81.0356 312.78 71.5186C320.97 62.0015 332.487 54.453 347.33 48.874C362.173 43.2952 379.149 40.5059 398.258 40.5059ZM966.709 131.614C966.709 138.242 972.082 143.614 978.709 143.614H1031.88C1037.72 143.614 1042.46 148.353 1042.46 154.198C1042.46 160.043 1037.72 164.781 1031.88 164.781H942.368C935.741 164.781 930.368 159.409 930.368 152.781V56.5059C930.368 49.8784 935.741 44.5059 942.368 44.5059H954.709C961.336 44.5059 966.709 49.8784 966.709 56.5059V131.614ZM24.1992 54.6402C24.1992 48.0766 29.4722 42.7284 36.0355 42.6638C56.326 42.464 77.0347 42.4556 98.1611 42.6387C116.758 42.7481 132.881 45.2649 146.53 50.1875C160.179 55.1101 170.586 61.9471 177.752 70.6982C185.088 79.4495 188.757 89.6224 188.757 101.218C188.757 113.141 185.857 123.643 180.056 132.723C174.255 141.802 164.615 149.077 151.137 154.547C137.658 159.907 119.914 162.696 97.9043 162.915C75.9889 163.096 55.3623 163.09 36.0247 162.896C29.4652 162.83 24.1992 157.483 24.1992 150.923V54.6402ZM747.487 53.3862C747.487 59.3219 742.675 64.1338 736.74 64.1338H704.72C698.092 64.1338 692.72 69.5064 692.72 76.1338V150.914C692.72 157.541 687.347 162.914 680.72 162.914H666.332C659.705 162.914 654.332 157.541 654.332 150.914V76.1338C654.332 69.5064 648.959 64.1338 642.332 64.1338H610.312C604.376 64.1338 599.564 59.3219 599.564 53.3862C599.564 47.4505 604.376 42.6387 610.312 42.6387H736.74C742.675 42.6387 747.487 47.4505 747.487 53.3862ZM905.867 145.296C910.101 153.288 904.308 162.914 895.263 162.914H884.918C880.414 162.914 876.289 160.392 874.236 156.382L869.92 147.951C867.867 143.941 863.743 141.419 859.238 141.419H800.464C795.959 141.419 791.835 143.941 789.782 147.95L785.465 156.383C783.412 160.392 779.288 162.914 774.783 162.914H764.477C755.423 162.914 749.63 153.271 753.882 145.278L805.096 49.003C807.179 45.0863 811.254 42.6387 815.69 42.6387H844.254C848.698 42.6387 852.778 45.0941 854.858 49.0206L905.867 145.296ZM262.828 150.506C262.828 157.133 257.456 162.506 250.828 162.506H235.836C229.209 162.506 223.836 157.133 223.836 150.506V54.5059C223.836 47.8784 229.209 42.5059 235.836 42.5059H250.828C257.456 42.5059 262.828 47.8784 262.828 54.5059V150.506ZM565.406 150.506C565.406 157.133 560.034 162.506 553.406 162.506H524.377C517.75 162.506 512.377 157.133 512.377 150.506V54.5059C512.377 47.8784 517.75 42.5059 524.377 42.5059H553.406C560.034 42.5059 565.406 47.8784 565.406 54.5059V150.506ZM96.3691 63.3145C89.6351 63.163 82.001 63.0902 73.4671 63.096C66.8776 63.1005 61.5635 68.464 61.5635 75.0534V129.912C61.5635 136.54 66.9369 141.915 73.5643 141.895C81.7425 141.872 89.0884 141.823 95.6016 141.748C115.905 141.529 130.151 137.755 138.341 130.426C146.53 123.097 150.625 113.36 150.625 101.218C150.625 93.2324 148.236 86.45 143.459 80.8711C138.852 75.1828 132.454 70.8618 124.265 67.9082C116.075 64.9547 106.777 63.4238 96.3691 63.3145ZM826.652 76.7686L811.619 105.28C807.405 113.271 813.199 122.877 822.233 122.877H837.469C846.503 122.877 852.297 113.271 848.084 105.28L833.05 76.7686C831.845 73.9561 827.857 73.9559 826.652 76.7686ZM1196.43 106.14C1196.43 111.487 1192.09 115.821 1186.75 115.821H1134.45C1129.1 115.821 1124.77 111.487 1124.77 106.14C1124.77 100.793 1129.1 96.459 1134.45 96.459H1186.75C1192.09 96.459 1196.43 100.793 1196.43 106.14Z"/>
</mask>
<path d="M1147.43 225.969C1147.43 219.385 1152.73 214.029 1159.32 213.988C1178.9 213.867 1198.48 213.898 1218.06 214.08C1230.86 214.19 1242.55 215.94 1253.12 219.331C1263.7 222.613 1271.98 227.153 1277.95 232.95C1284.09 238.639 1287.16 245.093 1287.16 252.312C1287.16 258.219 1285.54 263.579 1282.3 268.393C1279.23 273.096 1274.71 276.98 1268.74 280.043C1260.98 284.14 1257.37 295.185 1263.64 301.321L1276.37 313.778C1284.06 321.299 1278.73 334.355 1267.98 334.355H1261.85C1258.57 334.355 1255.43 333.011 1253.16 330.636L1211.62 287.057C1205.7 280.851 1210.26 270.454 1218.83 270.198C1228.22 270.089 1235.47 268.502 1240.58 265.439C1245.87 262.267 1248.52 257.891 1248.52 252.312C1248.52 249.031 1247.07 246.077 1244.17 243.452C1241.44 240.717 1237.51 238.53 1232.4 236.889C1227.45 235.138 1221.82 234.263 1215.5 234.263C1209.75 234.187 1202.75 234.138 1194.49 234.115C1187.86 234.096 1182.49 239.471 1182.49 246.099V322.355C1182.49 328.983 1177.12 334.355 1170.49 334.355H1159.43C1152.8 334.355 1147.43 328.983 1147.43 322.355V225.969ZM427.79 209.506C442.463 209.506 455.088 211.202 465.666 214.593C469.763 215.864 473.552 217.397 477.035 219.193C484.588 223.088 482.66 233.128 474.769 236.284L470.445 238.014C466.123 239.743 461.275 238.656 457.272 236.282C454.609 234.704 451.692 233.436 448.52 232.479C442.889 230.728 436.235 229.853 428.558 229.853C420.539 229.853 414.226 230.892 409.619 232.971C405.183 234.94 402.966 237.784 402.966 241.503C402.966 245.332 405.951 248.668 411.923 251.512C417.894 254.356 427.278 257.365 440.074 260.537C459.354 265.35 473.771 270.983 483.325 277.438C492.88 283.782 497.656 291.44 497.656 300.41C497.656 306.645 494.926 312.333 489.467 317.475C484.178 322.507 476.415 326.554 466.179 329.617C456.113 332.571 444.169 334.048 430.35 334.048C418.065 334.048 406.975 332.68 397.079 329.945C387.184 327.211 379.079 323.601 372.767 319.116C370.921 317.773 369.25 316.392 367.754 314.974C362.53 310.02 366.092 302.36 373.041 300.477L382.121 298.016C387.567 296.54 393.171 299.287 397.356 303.071C399.771 305.254 402.664 307.156 406.037 308.778C413.032 311.951 421.137 313.537 430.35 313.537C439.733 313.537 446.899 312.388 451.847 310.091C456.794 307.684 459.268 304.239 459.269 299.754C459.269 294.831 456.539 290.784 451.079 287.611C445.619 284.439 436.15 281.266 422.672 278.094C402.71 273.281 388.378 268.03 379.677 262.342C370.975 256.544 366.625 249.379 366.625 240.847C366.625 234.83 369.013 229.469 373.79 224.766C378.738 219.952 385.819 216.234 395.032 213.608C404.245 210.874 415.165 209.506 427.79 209.506ZM705.413 209.506C721.963 209.506 737.063 211.858 750.712 216.562C757.561 218.867 763.809 221.586 769.455 224.718C777.036 228.923 775.64 239.322 767.758 242.932L764.173 244.574C760.141 246.421 755.46 245.827 751.711 243.458C746.277 240.024 740.569 237.349 734.589 235.432C726.399 232.697 716.674 231.329 705.413 231.329C694.835 231.329 684.94 233.025 675.727 236.416C666.684 239.698 659.348 244.456 653.718 250.691C648.258 256.817 645.527 263.874 645.527 271.859C645.527 280.173 648.258 287.338 653.718 293.354C659.177 299.371 666.428 303.911 675.471 306.974C684.684 310.037 694.665 311.568 705.413 311.568C715.309 311.568 724.181 310.474 732.029 308.286C740.048 306.098 746.532 302.981 751.479 298.934C752.17 298.388 752.825 297.829 753.444 297.257C759.069 292.06 753.704 284.657 746.045 284.657H711.137C704.161 284.657 699.436 277.552 702.135 271.118C703.656 267.492 707.205 265.132 711.137 265.132H789.039C794.465 265.132 799.107 269.23 798.825 274.648C798.484 286.244 794.475 296.527 786.797 305.497C779.119 314.467 768.285 321.468 754.295 326.5C740.305 331.532 724.01 334.048 705.413 334.048C685.963 334.048 668.817 331.313 653.974 325.844C639.13 320.374 627.699 312.935 619.68 303.527C611.661 294.01 607.651 283.455 607.651 271.859C607.651 260.483 611.746 250.036 619.936 240.519C628.125 231.002 639.642 223.453 654.485 217.874C669.329 212.295 686.305 209.506 705.413 209.506ZM24.1992 223.64C24.1992 217.077 29.4722 211.728 36.0355 211.664C56.326 211.464 77.0347 211.456 98.1611 211.639C116.758 211.748 132.881 214.265 146.53 219.188C160.179 224.11 170.586 230.947 177.752 239.698C185.088 248.449 188.757 258.622 188.757 270.218C188.757 282.141 185.857 292.643 180.056 301.723C174.255 310.802 164.615 318.077 151.137 323.547C137.658 328.907 119.914 331.696 97.9043 331.915C75.9889 332.096 55.3623 332.09 36.0247 331.896C29.4652 331.83 24.1992 326.483 24.1992 319.923V223.64ZM324.422 221.894C324.422 227.558 319.83 232.149 314.167 232.149H260.669C254.042 232.149 248.669 237.522 248.669 244.149V247.552C248.669 254.179 254.042 259.552 260.669 259.552H291.892C297.42 259.552 301.901 264.033 301.901 269.561C301.901 275.089 297.42 279.57 291.892 279.57H260.669C254.042 279.57 248.669 284.943 248.669 291.57V298.747C248.669 305.374 254.042 310.747 260.669 310.747H313.838C319.683 310.747 324.422 315.485 324.422 321.331C324.422 327.176 319.683 331.914 313.838 331.914H223.049C216.421 331.914 211.049 326.541 211.049 319.914V223.639C211.049 217.011 216.421 211.639 223.049 211.639H314.167C319.83 211.639 324.422 216.23 324.422 221.894ZM559.409 319.914C559.409 326.541 554.037 331.914 547.409 331.914H535.58C528.953 331.914 523.58 326.541 523.58 319.914V223.639C523.58 217.011 528.953 211.639 535.58 211.639H547.409C554.037 211.639 559.409 217.011 559.409 223.639V319.914ZM926.486 281.069C930.933 285.844 938.918 282.478 938.605 275.961V223.639C938.605 217.011 943.978 211.639 950.605 211.639H963.714C970.341 211.639 975.714 217.011 975.714 223.639V319.914C975.714 326.541 970.341 331.914 963.714 331.914H939.487C936.151 331.914 932.965 330.525 930.694 328.08L869.839 262.557C865.423 257.801 857.474 261.108 857.733 267.593V319.914C857.733 326.541 852.361 331.914 845.733 331.914H832.599C825.982 331.914 820.614 326.557 820.6 319.94L820.395 223.664C820.381 217.027 825.757 211.639 832.395 211.639H856.606C859.936 211.639 863.117 213.023 865.387 215.461L926.486 281.069ZM1127.24 221.894C1127.24 227.558 1122.64 232.149 1116.98 232.149H1063.48C1056.86 232.149 1051.48 237.522 1051.48 244.149V247.552C1051.48 254.179 1056.86 259.552 1063.48 259.552H1094.71C1100.23 259.552 1104.72 264.033 1104.72 269.561C1104.72 275.089 1100.23 279.57 1094.71 279.57H1063.48C1056.86 279.57 1051.48 284.943 1051.48 291.57V298.747C1051.48 305.374 1056.86 310.747 1063.48 310.747H1116.65C1122.5 310.747 1127.24 315.485 1127.24 321.331C1127.24 327.176 1122.5 331.914 1116.65 331.914H1025.86C1019.24 331.914 1013.86 326.541 1013.86 319.914V223.639C1013.86 217.011 1019.24 211.639 1025.86 211.639H1116.98C1122.64 211.639 1127.24 216.23 1127.24 221.894ZM96.3691 232.314C89.6351 232.163 82.001 232.09 73.4671 232.096C66.8776 232.101 61.5635 237.464 61.5635 244.053V298.912C61.5635 305.54 66.9369 310.915 73.5643 310.895C81.7425 310.872 89.0884 310.823 95.6016 310.748C115.905 310.529 130.151 306.755 138.341 299.426C146.53 292.097 150.625 282.36 150.625 270.218C150.625 262.232 148.236 255.45 143.459 249.871C138.852 244.183 132.454 239.862 124.265 236.908C116.075 233.955 106.777 232.424 96.3691 232.314ZM398.258 40.5059C414.807 40.5059 429.907 42.8577 443.557 47.5615C450.406 49.8671 456.654 52.5858 462.3 55.7178C469.881 59.9228 468.484 70.3222 460.603 73.9318L457.016 75.5743C452.985 77.4206 448.304 76.827 444.555 74.4583C439.121 71.0244 433.414 68.3488 427.434 66.4316C419.244 63.6969 409.518 62.3291 398.258 62.3291C387.68 62.3291 377.784 64.0249 368.571 67.416C359.529 70.6978 352.192 75.4561 346.562 81.6914C341.102 87.8173 338.372 94.8738 338.372 102.859C338.372 111.173 341.102 118.338 346.562 124.354C352.021 130.371 359.273 134.911 368.315 137.974C377.528 141.037 387.509 142.568 398.258 142.568C408.153 142.568 417.026 141.474 424.874 139.286C432.893 137.098 439.376 133.981 444.324 129.934C445.015 129.388 445.669 128.829 446.289 128.257C451.914 123.06 446.549 115.657 438.89 115.657H403.982C397.006 115.657 392.281 108.552 394.979 102.118C396.5 98.4917 400.049 96.1318 403.982 96.1318H481.883C487.31 96.1318 491.952 100.23 491.67 105.648C491.329 117.244 487.319 127.527 479.642 136.497C471.964 145.467 461.13 152.468 447.14 157.5C433.149 162.532 416.855 165.048 398.258 165.048C378.808 165.048 361.661 162.313 346.817 156.844C331.974 151.374 320.543 143.935 312.524 134.527C304.506 125.01 300.496 114.455 300.496 102.859C300.496 91.4827 304.591 81.0356 312.78 71.5186C320.97 62.0015 332.487 54.453 347.33 48.874C362.173 43.2952 379.149 40.5059 398.258 40.5059ZM966.709 131.614C966.709 138.242 972.082 143.614 978.709 143.614H1031.88C1037.72 143.614 1042.46 148.353 1042.46 154.198C1042.46 160.043 1037.72 164.781 1031.88 164.781H942.368C935.741 164.781 930.368 159.409 930.368 152.781V56.5059C930.368 49.8784 935.741 44.5059 942.368 44.5059H954.709C961.336 44.5059 966.709 49.8784 966.709 56.5059V131.614ZM24.1992 54.6402C24.1992 48.0766 29.4722 42.7284 36.0355 42.6638C56.326 42.464 77.0347 42.4556 98.1611 42.6387C116.758 42.7481 132.881 45.2649 146.53 50.1875C160.179 55.1101 170.586 61.9471 177.752 70.6982C185.088 79.4495 188.757 89.6224 188.757 101.218C188.757 113.141 185.857 123.643 180.056 132.723C174.255 141.802 164.615 149.077 151.137 154.547C137.658 159.907 119.914 162.696 97.9043 162.915C75.9889 163.096 55.3623 163.09 36.0247 162.896C29.4652 162.83 24.1992 157.483 24.1992 150.923V54.6402ZM747.487 53.3862C747.487 59.3219 742.675 64.1338 736.74 64.1338H704.72C698.092 64.1338 692.72 69.5064 692.72 76.1338V150.914C692.72 157.541 687.347 162.914 680.72 162.914H666.332C659.705 162.914 654.332 157.541 654.332 150.914V76.1338C654.332 69.5064 648.959 64.1338 642.332 64.1338H610.312C604.376 64.1338 599.564 59.3219 599.564 53.3862C599.564 47.4505 604.376 42.6387 610.312 42.6387H736.74C742.675 42.6387 747.487 47.4505 747.487 53.3862ZM905.867 145.296C910.101 153.288 904.308 162.914 895.263 162.914H884.918C880.414 162.914 876.289 160.392 874.236 156.382L869.92 147.951C867.867 143.941 863.743 141.419 859.238 141.419H800.464C795.959 141.419 791.835 143.941 789.782 147.95L785.465 156.383C783.412 160.392 779.288 162.914 774.783 162.914H764.477C755.423 162.914 749.63 153.271 753.882 145.278L805.096 49.003C807.179 45.0863 811.254 42.6387 815.69 42.6387H844.254C848.698 42.6387 852.778 45.0941 854.858 49.0206L905.867 145.296ZM262.828 150.506C262.828 157.133 257.456 162.506 250.828 162.506H235.836C229.209 162.506 223.836 157.133 223.836 150.506V54.5059C223.836 47.8784 229.209 42.5059 235.836 42.5059H250.828C257.456 42.5059 262.828 47.8784 262.828 54.5059V150.506ZM565.406 150.506C565.406 157.133 560.034 162.506 553.406 162.506H524.377C517.75 162.506 512.377 157.133 512.377 150.506V54.5059C512.377 47.8784 517.75 42.5059 524.377 42.5059H553.406C560.034 42.5059 565.406 47.8784 565.406 54.5059V150.506ZM96.3691 63.3145C89.6351 63.163 82.001 63.0902 73.4671 63.096C66.8776 63.1005 61.5635 68.464 61.5635 75.0534V129.912C61.5635 136.54 66.9369 141.915 73.5643 141.895C81.7425 141.872 89.0884 141.823 95.6016 141.748C115.905 141.529 130.151 137.755 138.341 130.426C146.53 123.097 150.625 113.36 150.625 101.218C150.625 93.2324 148.236 86.45 143.459 80.8711C138.852 75.1828 132.454 70.8618 124.265 67.9082C116.075 64.9547 106.777 63.4238 96.3691 63.3145ZM826.652 76.7686L811.619 105.28C807.405 113.271 813.199 122.877 822.233 122.877H837.469C846.503 122.877 852.297 113.271 848.084 105.28L833.05 76.7686C831.845 73.9561 827.857 73.9559 826.652 76.7686ZM1196.43 106.14C1196.43 111.487 1192.09 115.821 1186.75 115.821H1134.45C1129.1 115.821 1124.77 111.487 1124.77 106.14C1124.77 100.793 1129.1 96.459 1134.45 96.459H1186.75C1192.09 96.459 1196.43 100.793 1196.43 106.14Z" fill="#DBFC3D"/>
<path d="M1218.06 214.08L1217.99 222.08L1218 222.08L1218.06 214.08ZM1253.12 219.331L1250.68 226.949L1250.72 226.961L1250.75 226.972L1253.12 219.331ZM1277.95 232.95L1272.38 238.69L1272.44 238.756L1272.51 238.82L1277.95 232.95ZM1287.16 252.312L1295.16 252.313V252.312H1287.16ZM1282.3 268.393L1275.67 263.924L1275.63 263.971L1275.6 264.019L1282.3 268.393ZM1268.74 280.043L1265.09 272.925L1265.04 272.946L1265 272.969L1268.74 280.043ZM1218.83 270.198L1218.74 262.199L1218.67 262.2L1218.59 262.202L1218.83 270.198ZM1240.58 265.439L1244.69 272.304L1244.7 272.3L1240.58 265.439ZM1248.52 252.312L1256.52 252.313V252.312H1248.52ZM1244.17 243.452L1238.51 249.104L1238.65 249.247L1238.8 249.383L1244.17 243.452ZM1232.4 236.889L1229.73 244.431L1229.84 244.47L1229.95 244.507L1232.4 236.889ZM1215.5 234.263L1215.4 242.262L1215.45 242.263H1215.5V234.263ZM427.79 209.506V201.506V201.506V209.506ZM465.666 214.593L463.224 222.211L463.26 222.222L463.296 222.234L465.666 214.593ZM448.52 232.479L446.145 240.118L446.177 240.128L446.209 240.137L448.52 232.479ZM428.558 229.853V221.853V221.853V229.853ZM409.619 232.971L412.865 240.283L412.887 240.273L412.909 240.263L409.619 232.971ZM402.966 241.503H394.966V241.503L402.966 241.503ZM411.923 251.512L408.483 258.734L408.483 258.734L411.923 251.512ZM440.074 260.537L442.012 252.775L441.999 252.772L440.074 260.537ZM483.325 277.438L478.847 284.067L478.873 284.084L478.9 284.102L483.325 277.438ZM497.656 300.41L505.656 300.41V300.41H497.656ZM489.467 317.475L483.982 311.651L483.967 311.665L483.953 311.679L489.467 317.475ZM466.179 329.617L468.431 337.294L468.452 337.288L468.472 337.281L466.179 329.617ZM430.35 334.048V342.048H430.35L430.35 334.048ZM397.079 329.945L394.948 337.656H394.948L397.079 329.945ZM372.767 319.116L368.059 325.584L368.096 325.611L368.133 325.638L372.767 319.116ZM406.037 308.778L402.57 315.988L402.651 316.027L402.733 316.064L406.037 308.778ZM430.35 313.537V321.537H430.35L430.35 313.537ZM451.847 310.091L455.216 317.347L455.281 317.316L455.346 317.285L451.847 310.091ZM459.269 299.754L467.269 299.754V299.754H459.269ZM451.079 287.611L455.098 280.694L455.098 280.694L451.079 287.611ZM422.672 278.094L420.797 285.871L420.818 285.876L420.839 285.881L422.672 278.094ZM379.677 262.342L375.241 268.999L375.27 269.019L375.299 269.038L379.677 262.342ZM366.625 240.847H358.625V240.847L366.625 240.847ZM373.79 224.766L368.212 219.031L368.194 219.048L368.177 219.065L373.79 224.766ZM395.032 213.608L397.225 221.302L397.267 221.29L397.309 221.278L395.032 213.608ZM705.413 209.506V201.506V201.506V209.506ZM750.712 216.562L748.105 224.125L748.133 224.134L748.16 224.144L750.712 216.562ZM734.589 235.432L732.055 243.02L732.101 243.035L732.147 243.05L734.589 235.432ZM705.413 231.329V223.329H705.413L705.413 231.329ZM675.727 236.416L678.456 243.936L678.473 243.93L678.49 243.924L675.727 236.416ZM653.718 250.691L647.78 245.33L647.763 245.349L647.745 245.369L653.718 250.691ZM645.527 271.859H637.527V271.859L645.527 271.859ZM653.718 293.354L647.793 298.731L647.793 298.731L653.718 293.354ZM675.471 306.974L672.904 314.551L672.925 314.558L672.947 314.565L675.471 306.974ZM705.413 311.568L705.413 319.568H705.413V311.568ZM732.029 308.286L729.924 300.568L729.902 300.574L729.881 300.58L732.029 308.286ZM751.479 298.934L746.517 292.658L746.465 292.7L746.414 292.741L751.479 298.934ZM798.825 274.648L790.836 274.233L790.831 274.323L790.829 274.413L798.825 274.648ZM786.797 305.497L792.875 310.699L792.875 310.699L786.797 305.497ZM754.295 326.5L757.003 334.028V334.028L754.295 326.5ZM705.413 334.048V342.048V342.048V334.048ZM653.974 325.844L651.208 333.35H651.208L653.974 325.844ZM619.68 303.527L613.562 308.682L613.577 308.7L613.591 308.717L619.68 303.527ZM607.651 271.859H599.651V271.859L607.651 271.859ZM619.936 240.519L613.872 235.3V235.3L619.936 240.519ZM654.485 217.874L651.671 210.385V210.385L654.485 217.874ZM98.1611 211.639L98.0918 219.638L98.1029 219.638L98.1141 219.639L98.1611 211.639ZM146.53 219.188L149.244 211.662L149.244 211.662L146.53 219.188ZM177.752 239.698L171.562 244.767L171.592 244.802L171.621 244.838L177.752 239.698ZM188.757 270.218H196.757V270.218L188.757 270.218ZM180.056 301.723L186.797 306.03H186.797L180.056 301.723ZM151.137 323.547L154.093 330.981L154.119 330.97L154.145 330.96L151.137 323.547ZM97.9043 331.915L97.9705 339.915L97.9838 339.915L97.9043 331.915ZM938.605 275.961H930.605V276.153L930.615 276.344L938.605 275.961ZM857.733 267.593H865.733V267.433L865.727 267.273L857.733 267.593ZM96.3691 232.314L96.1892 240.312L96.2371 240.314L96.2851 240.314L96.3691 232.314ZM95.6016 310.748L95.5154 302.749L95.51 302.749L95.6016 310.748ZM138.341 299.426L143.676 305.387L143.676 305.387L138.341 299.426ZM150.625 270.218H158.625V270.218L150.625 270.218ZM143.459 249.871L137.242 254.906L137.311 254.991L137.382 255.074L143.459 249.871ZM124.265 236.908L126.979 229.383L126.979 229.383L124.265 236.908ZM398.258 40.5059V32.5059V32.5059V40.5059ZM443.557 47.5615L440.95 55.125L440.977 55.1343L441.004 55.1435L443.557 47.5615ZM427.434 66.4316L424.9 74.0197L424.945 74.035L424.991 74.0497L427.434 66.4316ZM398.258 62.3291V54.3291H398.258L398.258 62.3291ZM368.571 67.416L371.3 74.9361L371.318 74.9299L371.335 74.9236L368.571 67.416ZM346.562 81.6914L340.624 76.33L340.607 76.3493L340.589 76.3687L346.562 81.6914ZM338.372 102.859H330.372V102.859L338.372 102.859ZM346.562 124.354L340.637 129.731V129.731L346.562 124.354ZM368.315 137.974L365.749 145.551L365.77 145.558L365.792 145.565L368.315 137.974ZM398.258 142.568L398.258 150.568H398.258V142.568ZM424.874 139.286L422.768 131.568L422.747 131.574L422.726 131.58L424.874 139.286ZM444.324 129.934L439.362 123.658L439.31 123.7L439.259 123.741L444.324 129.934ZM491.67 105.648L483.681 105.233L483.676 105.323L483.673 105.413L491.67 105.648ZM479.642 136.497L485.719 141.699V141.699L479.642 136.497ZM447.14 157.5L449.847 165.028L449.847 165.028L447.14 157.5ZM398.258 165.048V173.048V173.048V165.048ZM346.817 156.844L344.051 164.35L344.051 164.35L346.817 156.844ZM312.524 134.527L306.407 139.682L306.421 139.7L306.436 139.717L312.524 134.527ZM300.496 102.859H292.496V102.859L300.496 102.859ZM312.78 71.5186L306.716 66.3005V66.3005L312.78 71.5186ZM347.33 48.874L344.516 41.3855L344.516 41.3855L347.33 48.874ZM98.1611 42.6387L98.0918 50.6384L98.1029 50.6385L98.1141 50.6385L98.1611 42.6387ZM146.53 50.1875L149.244 42.662L149.244 42.662L146.53 50.1875ZM177.752 70.6982L171.562 75.7665L171.592 75.8023L171.621 75.8378L177.752 70.6982ZM188.757 101.218H196.757V101.218L188.757 101.218ZM180.056 132.723L186.797 137.03L186.797 137.03L180.056 132.723ZM151.137 154.547L154.093 161.981L154.119 161.97L154.145 161.96L151.137 154.547ZM97.9043 162.915L97.9705 170.915L97.9838 170.915L97.9043 162.915ZM96.3691 63.3145L96.1892 71.3124L96.2371 71.3135L96.2851 71.314L96.3691 63.3145ZM95.6016 141.748L95.5154 133.749L95.51 133.749L95.6016 141.748ZM138.341 130.426L143.676 136.387L143.676 136.387L138.341 130.426ZM150.625 101.218H158.625V101.218L150.625 101.218ZM143.459 80.8711L137.242 85.9058L137.311 85.9911L137.382 86.0744L143.459 80.8711ZM124.265 67.9082L126.979 60.3827L126.979 60.3827L124.265 67.9082ZM826.652 76.7686L833.729 80.4999L833.879 80.2149L834.006 79.9187L826.652 76.7686ZM833.05 76.7686L825.696 79.9196L825.823 80.2153L825.973 80.4999L833.05 76.7686ZM848.084 105.28L841.007 109.011L848.084 105.28ZM811.619 105.28L818.695 109.011L811.619 105.28ZM73.5643 141.895L73.541 133.896L73.5643 141.895ZM36.0355 42.6638L36.1143 50.6634L36.0355 42.6638ZM457.016 75.5743L453.685 68.3008L457.016 75.5743ZM73.5643 310.895L73.541 302.896L73.5643 310.895ZM73.4671 232.096L73.4616 224.096L73.4671 232.096ZM1211.62 287.057L1205.82 292.577L1211.62 287.057ZM869.839 262.557L875.701 257.112L869.839 262.557ZM1253.16 330.636L1258.95 325.116L1253.16 330.636ZM1276.37 313.778L1270.77 319.496L1276.37 313.778ZM1159.32 213.988L1159.37 221.988L1159.32 213.988ZM805.096 49.003L798.033 45.2459L805.096 49.003ZM753.882 145.278L760.945 149.036L753.882 145.278ZM785.465 156.383L792.586 160.028L785.465 156.383ZM789.782 147.95L782.661 144.305L789.782 147.95ZM869.92 147.951L862.799 151.596L869.92 147.951ZM460.603 73.9318L457.272 66.6583L460.603 73.9318ZM382.121 298.016L380.028 290.294L382.121 298.016ZM397.356 303.071L402.722 297.137L397.356 303.071ZM394.979 102.118L402.357 105.213L394.979 102.118ZM764.173 244.574L767.504 251.848L764.173 244.574ZM751.711 243.458L747.438 250.221L751.711 243.458ZM769.455 224.718L765.575 231.714L769.455 224.718ZM767.758 242.932L771.09 250.205L767.758 242.932ZM36.0247 331.896L36.105 323.896L36.0247 331.896ZM367.754 314.974L373.259 309.168L367.754 314.974ZM373.041 300.477L370.948 292.756L373.041 300.477ZM457.272 236.282L461.352 229.401L457.272 236.282ZM905.867 145.296L912.936 141.551L905.867 145.296ZM820.6 319.94L828.599 319.923L820.6 319.94ZM753.444 297.257L758.872 303.133L753.444 297.257ZM820.395 223.664L828.395 223.647L820.395 223.664ZM702.135 271.118L709.512 274.213L702.135 271.118ZM1194.49 234.115L1194.51 226.115L1194.49 234.115ZM865.387 215.461L871.242 210.008L865.387 215.461ZM874.236 156.382L881.357 152.737L874.236 156.382ZM36.0355 211.664L35.9567 203.664L36.0355 211.664ZM926.486 281.069L920.632 286.521L926.486 281.069ZM1263.64 301.321L1269.23 295.603L1263.64 301.321ZM474.769 236.284L471.798 228.857L474.769 236.284ZM1159.32 213.988L1159.37 221.988C1178.91 221.868 1198.45 221.898 1217.99 222.08L1218.06 214.08L1218.14 206.08C1198.52 205.898 1178.89 205.867 1159.27 205.988L1159.32 213.988ZM1218.06 214.08L1218 222.08C1230.11 222.183 1240.98 223.838 1250.68 226.949L1253.12 219.331L1255.57 211.713C1244.12 208.042 1231.61 206.196 1218.13 206.08L1218.06 214.08ZM1253.12 219.331L1250.75 226.972C1260.51 229.999 1267.56 234.01 1272.38 238.69L1277.95 232.95L1283.52 227.21C1276.4 220.295 1266.89 215.227 1255.5 211.69L1253.12 219.331ZM1277.95 232.95L1272.51 238.82C1277.31 243.259 1279.16 247.683 1279.16 252.312H1287.16H1295.16C1295.16 242.502 1290.88 234.018 1283.39 227.081L1277.95 232.95ZM1287.16 252.312L1279.16 252.312C1279.16 256.658 1278 260.456 1275.67 263.924L1282.3 268.393L1288.94 272.861C1293.08 266.703 1295.16 259.781 1295.16 252.313L1287.16 252.312ZM1282.3 268.393L1275.6 264.019C1273.43 267.351 1270.06 270.373 1265.09 272.925L1268.74 280.043L1272.39 287.161C1279.35 283.587 1285.03 278.842 1289 272.766L1282.3 268.393ZM1263.64 301.321L1258.04 307.04L1270.77 319.496L1276.37 313.778L1281.96 308.06L1269.23 295.603L1263.64 301.321ZM1267.98 334.355V326.355H1261.85V334.355V342.355H1267.98V334.355ZM1253.16 330.636L1258.95 325.116L1217.41 281.537L1211.62 287.057L1205.82 292.577L1247.37 336.156L1253.16 330.636ZM1218.83 270.198L1218.93 278.198C1228.99 278.08 1237.85 276.396 1244.69 272.304L1240.58 265.439L1236.48 258.575C1233.08 260.608 1227.44 262.097 1218.74 262.199L1218.83 270.198ZM1240.58 265.439L1244.7 272.3C1252.09 267.865 1256.52 261.041 1256.52 252.313L1248.52 252.312L1240.52 252.312C1240.52 254.742 1239.65 256.669 1236.47 258.579L1240.58 265.439ZM1248.52 252.312H1256.52C1256.52 246.337 1253.76 241.345 1249.54 237.521L1244.17 243.452L1238.8 249.383C1240.38 250.81 1240.52 251.725 1240.52 252.312H1248.52ZM1244.17 243.452L1249.83 237.8C1245.92 233.88 1240.72 231.157 1234.84 229.271L1232.4 236.889L1229.95 244.507C1234.31 245.902 1236.96 247.555 1238.51 249.104L1244.17 243.452ZM1232.4 236.889L1235.06 229.347C1229.11 227.239 1222.55 226.263 1215.5 226.263V234.263V242.263C1221.09 242.263 1225.79 243.038 1229.73 244.431L1232.4 236.889ZM1215.5 234.263L1215.61 226.263C1209.82 226.188 1202.79 226.138 1194.51 226.115L1194.49 234.115L1194.47 242.115C1202.71 242.138 1209.68 242.187 1215.4 242.262L1215.5 234.263ZM1182.49 246.099H1174.49V322.355H1182.49H1190.49V246.099H1182.49ZM1170.49 334.355V326.355H1159.43V334.355V342.355H1170.49V334.355ZM1147.43 322.355H1155.43V225.969H1147.43H1139.43V322.355H1147.43ZM427.79 209.506V217.506C441.883 217.506 453.642 219.139 463.224 222.211L465.666 214.593L468.108 206.975C456.534 203.264 443.042 201.506 427.79 201.506V209.506ZM465.666 214.593L463.296 222.234C466.987 223.379 470.338 224.741 473.368 226.303L477.035 219.193L480.701 212.083C476.766 210.053 472.538 208.349 468.036 206.952L465.666 214.593ZM474.769 236.284L471.798 228.857L467.474 230.586L470.445 238.014L473.416 245.442L477.74 243.712L474.769 236.284ZM457.272 236.282L461.352 229.401C458.096 227.47 454.579 225.95 450.83 224.82L448.52 232.479L446.209 240.137C448.805 240.921 451.123 241.937 453.191 243.163L457.272 236.282ZM448.52 232.479L450.894 224.839C444.304 222.79 436.812 221.853 428.558 221.853V229.853V237.853C435.659 237.853 441.475 238.666 446.145 240.118L448.52 232.479ZM428.558 229.853V221.853C419.996 221.853 412.399 222.94 406.329 225.679L409.619 232.971L412.909 240.263C416.052 238.845 421.082 237.853 428.558 237.853V229.853ZM409.619 232.971L406.373 225.659C403.351 227 400.469 228.906 398.32 231.661C396.079 234.535 394.966 237.921 394.966 241.503H402.966H410.966C410.966 241.38 410.982 241.375 410.961 241.439C410.938 241.505 410.913 241.531 410.938 241.5C411.007 241.411 411.451 240.91 412.865 240.283L409.619 232.971ZM402.966 241.503L394.966 241.503C394.966 250.235 401.868 255.584 408.483 258.734L411.923 251.512L415.363 244.289C412.918 243.125 411.699 242.136 411.166 241.542C410.75 241.077 410.966 241.121 410.966 241.503L402.966 241.503ZM411.923 251.512L408.483 258.734C415.21 261.939 425.237 265.101 438.149 268.302L440.074 260.537L441.999 252.772C429.319 249.629 420.578 246.773 415.363 244.289L411.923 251.512ZM440.074 260.537L438.136 268.299C457.067 273.025 470.432 278.382 478.847 284.067L483.325 277.438L487.803 270.808C477.11 263.585 461.64 257.676 442.012 252.775L440.074 260.537ZM483.325 277.438L478.9 284.102C486.921 289.429 489.656 294.863 489.656 300.41H497.656H505.656C505.656 288.017 498.838 278.136 487.751 270.773L483.325 277.438ZM497.656 300.41L489.656 300.41C489.656 304 488.188 307.69 483.982 311.651L489.467 317.475L494.951 323.299C501.665 316.977 505.656 309.291 505.656 300.41L497.656 300.41ZM489.467 317.475L483.953 311.679C479.899 315.535 473.433 319.096 463.885 321.953L466.179 329.617L468.472 337.281C479.397 334.012 488.457 329.478 494.981 323.271L489.467 317.475ZM466.179 329.617L463.926 321.941C454.781 324.624 443.633 326.048 430.35 326.048L430.35 334.048L430.35 342.048C444.705 342.048 457.444 340.517 468.431 337.294L466.179 329.617ZM430.35 334.048V326.048C418.649 326.048 408.292 324.744 399.21 322.234L397.079 329.945L394.948 337.656C405.658 340.616 417.482 342.048 430.35 342.048V334.048ZM397.079 329.945L399.21 322.234C389.936 319.671 382.752 316.397 377.4 312.595L372.767 319.116L368.133 325.638C375.407 330.806 384.431 334.75 394.948 337.656L397.079 329.945ZM372.767 319.116L377.474 312.648C375.879 311.487 374.478 310.325 373.259 309.168L367.754 314.974L362.25 320.779C364.021 322.459 365.963 324.059 368.059 325.584L372.767 319.116ZM373.041 300.477L375.134 308.198L384.214 305.737L382.121 298.016L380.028 290.294L370.948 292.756L373.041 300.477ZM397.356 303.071L391.991 309.005C395.052 311.772 398.608 314.083 402.57 315.988L406.037 308.778L409.504 301.569C406.721 300.23 404.49 298.736 402.722 297.137L397.356 303.071ZM406.037 308.778L402.733 316.064C410.952 319.791 420.22 321.537 430.35 321.537V313.537V305.537C422.053 305.537 415.113 304.11 409.341 301.492L406.037 308.778ZM430.35 313.537L430.35 321.537C440.176 321.537 448.711 320.367 455.216 317.347L451.847 310.091L448.478 302.835C445.087 304.409 439.291 305.537 430.35 305.537L430.35 313.537ZM451.847 310.091L455.346 317.285C458.669 315.668 461.704 313.442 463.911 310.368C466.182 307.205 467.268 303.569 467.269 299.754L459.269 299.754L451.269 299.754C451.269 300.424 451.117 300.753 450.915 301.036C450.648 301.407 449.972 302.107 448.347 302.897L451.847 310.091ZM459.269 299.754H467.269C467.269 291.16 462.219 284.832 455.098 280.694L451.079 287.611L447.06 294.528C450.858 296.736 451.269 298.502 451.269 299.754H459.269ZM451.079 287.611L455.098 280.694C448.536 276.881 438.06 273.497 424.505 270.307L422.672 278.094L420.839 285.881C434.24 289.035 442.703 291.997 447.06 294.528L451.079 287.611ZM422.672 278.094L424.547 270.317C404.782 265.551 391.561 260.553 384.054 255.646L379.677 262.342L375.299 269.038C385.196 275.507 400.638 281.01 420.797 285.871L422.672 278.094ZM379.677 262.342L384.113 255.684C377.065 250.989 374.625 246.082 374.625 240.847L366.625 240.847L358.625 240.847C358.625 252.677 364.886 262.1 375.241 268.999L379.677 262.342ZM366.625 240.847H374.625C374.625 237.227 375.962 233.854 379.403 230.466L373.79 224.766L368.177 219.065C362.064 225.085 358.625 232.433 358.625 240.847H366.625ZM373.79 224.766L379.368 230.5C383.07 226.899 388.816 223.698 397.225 221.302L395.032 213.608L392.84 205.915C382.822 208.769 374.405 213.006 368.212 219.031L373.79 224.766ZM395.032 213.608L397.309 221.278C405.593 218.818 415.709 217.506 427.79 217.506V209.506V201.506C414.62 201.506 402.897 202.929 392.756 205.939L395.032 213.608ZM705.413 209.506V217.506C721.203 217.506 735.408 219.749 748.105 224.125L750.712 216.562L753.318 208.998C738.718 203.966 722.722 201.506 705.413 201.506V209.506ZM750.712 216.562L748.16 224.144C754.603 226.312 760.399 228.843 765.575 231.714L769.455 224.718L773.336 217.722C767.219 214.329 760.52 211.422 753.264 208.98L750.712 216.562ZM767.758 242.932L764.427 235.658L760.841 237.301L764.173 244.574L767.504 251.848L771.09 250.205L767.758 242.932ZM751.711 243.458L755.985 236.695C749.992 232.909 743.671 229.942 737.031 227.814L734.589 235.432L732.147 243.05C737.468 244.756 742.562 247.14 747.438 250.221L751.711 243.458ZM734.589 235.432L737.123 227.844C727.911 224.767 717.288 223.329 705.413 223.329V231.329V239.329C716.059 239.329 724.888 240.626 732.055 243.02L734.589 235.432ZM705.413 231.329L705.413 223.329C693.965 223.329 683.127 225.167 672.963 228.908L675.727 236.416L678.49 243.924C686.752 240.883 695.705 239.329 705.413 239.329L705.413 231.329ZM675.727 236.416L672.997 228.896C662.905 232.559 654.407 237.991 647.78 245.33L653.718 250.691L659.655 256.053C664.289 250.921 670.464 246.837 678.456 243.936L675.727 236.416ZM653.718 250.691L647.745 245.369C641.02 252.915 637.527 261.852 637.527 271.859H645.527H653.527C653.527 265.896 655.497 260.719 659.69 256.014L653.718 250.691ZM645.527 271.859L637.527 271.859C637.527 282.11 640.965 291.205 647.793 298.731L653.718 293.354L659.642 287.978C655.552 283.471 653.527 278.236 653.527 271.859L645.527 271.859ZM653.718 293.354L647.793 298.731C654.315 305.917 662.8 311.128 672.904 314.551L675.471 306.974L678.037 299.397C670.057 296.693 664.04 292.824 659.642 287.978L653.718 293.354ZM675.471 306.974L672.947 314.565C683.056 317.926 693.898 319.568 705.413 319.568L705.413 311.568L705.413 303.568C695.431 303.568 686.312 302.147 677.995 299.382L675.471 306.974ZM705.413 311.568V319.568C715.885 319.568 725.499 318.411 734.177 315.992L732.029 308.286L729.881 300.58C722.863 302.536 714.732 303.568 705.413 303.568V311.568ZM732.029 308.286L734.135 316.004C742.925 313.606 750.509 310.063 756.545 305.126L751.479 298.934L746.414 292.741C742.554 295.899 737.171 298.591 729.924 300.568L732.029 308.286ZM751.479 298.934L756.442 305.209C757.286 304.541 758.097 303.85 758.872 303.133L753.444 297.257L748.015 291.381C747.553 291.808 747.054 292.234 746.517 292.658L751.479 298.934ZM746.045 284.657V276.657H711.137V284.657V292.657H746.045V284.657ZM711.137 265.132V273.132H789.039V265.132V257.132H711.137V265.132ZM798.825 274.648L790.829 274.413C790.542 284.147 787.232 292.686 780.719 300.295L786.797 305.497L792.875 310.699C801.717 300.368 806.426 288.34 806.822 274.884L798.825 274.648ZM786.797 305.497L780.719 300.295C774.149 307.971 764.605 314.29 751.587 318.972L754.295 326.5L757.003 334.028C771.966 328.646 784.089 320.964 792.875 310.699L786.797 305.497ZM754.295 326.5L751.587 318.972C738.652 323.624 723.309 326.048 705.413 326.048V334.048V342.048C724.711 342.048 741.957 339.44 757.003 334.028L754.295 326.5ZM705.413 334.048V326.048C686.698 326.048 670.52 323.415 656.74 318.337L653.974 325.844L651.208 333.35C667.114 339.211 685.229 342.048 705.413 342.048V334.048ZM653.974 325.844L656.74 318.337C642.832 313.212 632.681 306.448 625.768 298.338L619.68 303.527L613.591 308.717C622.716 319.422 635.429 327.536 651.208 333.35L653.974 325.844ZM619.68 303.527L625.798 298.373C618.898 290.184 615.651 281.424 615.651 271.859L607.651 271.859L599.651 271.859C599.651 285.485 604.424 297.837 613.562 308.682L619.68 303.527ZM607.651 271.859H615.651C615.651 262.6 618.92 253.963 626 245.737L619.936 240.519L613.872 235.3C604.572 246.108 599.651 258.365 599.651 271.859H607.651ZM619.936 240.519L626 245.737C633.113 237.47 643.389 230.591 657.3 225.363L654.485 217.874L651.671 210.385C635.895 216.315 623.137 224.533 613.872 235.3L619.936 240.519ZM654.485 217.874L657.3 225.363C671.08 220.183 687.074 217.506 705.413 217.506V209.506V201.506C685.535 201.506 667.577 204.407 651.671 210.385L654.485 217.874ZM36.0355 211.664L36.1143 219.663C56.3535 219.464 77.0128 219.456 98.0918 219.638L98.1611 211.639L98.2304 203.639C77.0567 203.456 56.2986 203.464 35.9567 203.664L36.0355 211.664ZM98.1611 211.639L98.1141 219.639C116.045 219.744 131.225 222.172 143.816 226.713L146.53 219.188L149.244 211.662C134.537 206.358 117.471 203.752 98.2082 203.639L98.1611 211.639ZM146.53 219.188L143.816 226.713C156.484 231.282 165.537 237.408 171.562 244.767L177.752 239.698L183.942 234.63C175.636 224.486 163.875 216.939 149.244 211.662L146.53 219.188ZM177.752 239.698L171.621 244.838C177.73 252.125 180.757 260.471 180.757 270.218L188.757 270.218L196.757 270.218C196.757 256.774 192.447 244.774 183.883 234.559L177.752 239.698ZM188.757 270.218H180.757C180.757 280.784 178.207 289.757 173.314 297.415L180.056 301.723L186.797 306.03C193.506 295.529 196.757 283.499 196.757 270.218H188.757ZM180.056 301.723L173.314 297.415C168.67 304.684 160.599 311.074 148.129 316.134L151.137 323.547L154.145 330.96C168.632 325.081 179.839 316.92 186.797 306.03L180.056 301.723ZM151.137 323.547L148.18 316.113C135.964 320.971 119.307 323.702 97.8248 323.915L97.9043 331.915L97.9838 339.915C120.521 339.691 139.352 336.843 154.093 330.981L151.137 323.547ZM97.9043 331.915L97.8381 323.915C75.9652 324.096 55.3879 324.09 36.105 323.896L36.0247 331.896L35.9443 339.895C55.3367 340.09 76.0125 340.096 97.9705 339.915L97.9043 331.915ZM24.1992 319.923H32.1992V223.64H24.1992H16.1992V319.923H24.1992ZM314.167 232.149V224.149H260.669V232.149V240.149H314.167V232.149ZM248.669 244.149H240.669V247.552H248.669H256.669V244.149H248.669ZM260.669 259.552V267.552H291.892V259.552V251.552H260.669V259.552ZM291.892 279.57V271.57H260.669V279.57V287.57H291.892V279.57ZM248.669 291.57H240.669V298.747H248.669H256.669V291.57H248.669ZM260.669 310.747V318.747H313.838V310.747V302.747H260.669V310.747ZM313.838 331.914V323.914H223.049V331.914V339.914H313.838V331.914ZM211.049 319.914H219.049V223.639H211.049H203.049V319.914H211.049ZM223.049 211.639V219.639H314.167V211.639V203.639H223.049V211.639ZM547.409 331.914V323.914H535.58V331.914V339.914H547.409V331.914ZM523.58 319.914H531.58V223.639H523.58H515.58V319.914H523.58ZM535.58 211.639V219.639H547.409V211.639V203.639H535.58V211.639ZM559.409 223.639H551.409V319.914H559.409H567.409V223.639H559.409ZM938.605 275.961H946.605V223.639H938.605H930.605V275.961H938.605ZM950.605 211.639V219.639H963.714V211.639V203.639H950.605V211.639ZM975.714 223.639H967.714V319.914H975.714H983.714V223.639H975.714ZM963.714 331.914V323.914H939.487V331.914V339.914H963.714V331.914ZM930.694 328.08L936.556 322.636L875.701 257.112L869.839 262.557L863.977 268.001L924.832 333.524L930.694 328.08ZM857.733 267.593H849.733V319.914H857.733H865.733V267.593H857.733ZM845.733 331.914V323.914H832.599V331.914V339.914H845.733V331.914ZM820.6 319.94L828.599 319.923L828.395 223.647L820.395 223.664L812.395 223.681L812.6 319.957L820.6 319.94ZM832.395 211.639V219.639H856.606V211.639V203.639H832.395V211.639ZM865.387 215.461L859.533 220.913L920.632 286.521L926.486 281.069L932.34 275.617L871.242 210.008L865.387 215.461ZM1116.98 232.149V224.149H1063.48V232.149V240.149H1116.98V232.149ZM1051.48 244.149H1043.48V247.552H1051.48H1059.48V244.149H1051.48ZM1063.48 259.552V267.552H1094.71V259.552V251.552H1063.48V259.552ZM1094.71 279.57V271.57H1063.48V279.57V287.57H1094.71V279.57ZM1051.48 291.57H1043.48V298.747H1051.48H1059.48V291.57H1051.48ZM1063.48 310.747V318.747H1116.65V310.747V302.747H1063.48V310.747ZM1116.65 331.914V323.914H1025.86V331.914V339.914H1116.65V331.914ZM1013.86 319.914H1021.86V223.639H1013.86H1005.86V319.914H1013.86ZM1025.86 211.639V219.639H1116.98V211.639V203.639H1025.86V211.639ZM96.3691 232.314L96.5491 224.316C89.7395 224.163 82.0419 224.09 73.4616 224.096L73.4671 232.096L73.4726 240.096C81.9601 240.09 89.5306 240.163 96.1892 240.312L96.3691 232.314ZM61.5635 244.053H53.5635V298.912H61.5635H69.5635V244.053H61.5635ZM73.5643 310.895L73.5875 318.895C81.7831 318.872 89.1523 318.822 95.6932 318.748L95.6016 310.748L95.51 302.749C89.0245 302.823 81.702 302.872 73.541 302.896L73.5643 310.895ZM95.6016 310.748L95.6878 318.748C116.475 318.524 133.237 314.729 143.676 305.387L138.341 299.426L133.006 293.464C127.065 298.781 115.335 302.535 95.5154 302.749L95.6016 310.748ZM138.341 299.426L143.676 305.387C153.75 296.371 158.625 284.369 158.625 270.218H150.625H142.625C142.625 280.351 139.31 287.822 133.006 293.465L138.341 299.426ZM150.625 270.218L158.625 270.218C158.625 260.503 155.666 251.827 149.536 244.668L143.459 249.871L137.382 255.074C140.806 259.073 142.625 263.962 142.625 270.218L150.625 270.218ZM143.459 249.871L149.676 244.836C143.99 237.815 136.279 232.737 126.979 229.383L124.265 236.908L121.551 244.434C128.629 246.987 133.715 250.55 137.242 254.906L143.459 249.871ZM124.265 236.908L126.979 229.383C117.798 226.072 107.587 224.432 96.4532 224.315L96.3691 232.314L96.2851 240.314C105.966 240.416 114.352 241.838 121.551 244.434L124.265 236.908ZM398.258 40.5059V48.5059C414.048 48.5059 428.252 50.749 440.95 55.125L443.557 47.5615L446.163 39.9981C431.563 34.9663 415.567 32.5059 398.258 32.5059V40.5059ZM443.557 47.5615L441.004 55.1435C447.448 57.3123 453.244 59.8428 458.419 62.7136L462.3 55.7178L466.18 48.722C460.063 45.3289 453.364 42.4218 446.109 39.9795L443.557 47.5615ZM460.603 73.9318L457.272 66.6583L453.685 68.3008L457.016 75.5743L460.347 82.8478L463.934 81.2053L460.603 73.9318ZM444.555 74.4583L448.829 67.6954C442.836 63.9088 436.515 60.9421 429.876 58.8135L427.434 66.4316L424.991 74.0497C430.312 75.7555 435.405 78.1401 440.282 81.2213L444.555 74.4583ZM427.434 66.4316L429.968 58.8436C420.756 55.7674 410.133 54.3291 398.258 54.3291V62.3291V70.3291C408.904 70.3291 417.732 71.6263 424.9 74.0197L427.434 66.4316ZM398.258 62.3291L398.258 54.3291C386.81 54.3291 375.972 56.1673 365.808 59.9084L368.571 67.416L371.335 74.9236C379.597 71.8826 388.55 70.3291 398.258 70.3291L398.258 62.3291ZM368.571 67.416L365.842 59.8959C355.75 63.5587 347.251 68.9907 340.624 76.33L346.562 81.6914L352.499 87.0529C357.133 81.9215 363.308 77.8368 371.3 74.9361L368.571 67.416ZM346.562 81.6914L340.589 76.3687C333.863 83.9157 330.372 92.8524 330.372 102.859H338.372H346.372C346.372 96.8953 348.341 91.7189 352.534 87.0141L346.562 81.6914ZM338.372 102.859L330.372 102.859C330.372 113.109 333.808 122.205 340.637 129.731L346.562 124.354L352.486 118.978C348.396 114.471 346.372 109.236 346.372 102.859L338.372 102.859ZM346.562 124.354L340.637 129.731C347.159 136.918 355.645 142.128 365.749 145.551L368.315 137.974L370.882 130.397C362.901 127.693 356.883 123.824 352.486 118.978L346.562 124.354ZM368.315 137.974L365.792 145.565C375.901 148.926 386.742 150.568 398.258 150.568L398.258 142.568L398.258 134.568C388.276 134.568 379.156 133.147 370.839 130.382L368.315 137.974ZM398.258 142.568V150.568C408.73 150.568 418.344 149.411 427.022 146.992L424.874 139.286L422.726 131.58C415.707 133.536 407.577 134.568 398.258 134.568V142.568ZM424.874 139.286L426.98 147.004C435.77 144.606 443.354 141.063 449.39 136.126L444.324 129.934L439.259 123.741C435.399 126.899 430.016 129.591 422.768 131.568L424.874 139.286ZM444.324 129.934L449.286 136.209C450.13 135.541 450.941 134.85 451.717 134.133L446.289 128.257L440.86 122.381C440.398 122.808 439.899 123.234 439.362 123.658L444.324 129.934ZM438.89 115.657V107.657H403.982V115.657V123.657H438.89V115.657ZM403.982 96.1318V104.132H481.883V96.1318V88.1318H403.982V96.1318ZM491.67 105.648L483.673 105.413C483.387 115.147 480.077 123.686 473.564 131.295L479.642 136.497L485.719 141.699C494.562 131.368 499.27 119.34 499.666 105.884L491.67 105.648ZM479.642 136.497L473.564 131.295C466.994 138.971 457.45 145.29 444.432 149.972L447.14 157.5L449.847 165.028C464.81 159.646 476.934 151.964 485.719 141.699L479.642 136.497ZM447.14 157.5L444.432 149.972C431.497 154.624 416.154 157.048 398.258 157.048V165.048V173.048C417.556 173.048 434.801 170.44 449.847 165.028L447.14 157.5ZM398.258 165.048V157.048C379.543 157.048 363.364 154.415 349.583 149.337L346.817 156.844L344.051 164.35C359.958 170.212 378.073 173.048 398.258 173.048V165.048ZM346.817 156.844L349.583 149.337C335.676 144.212 325.526 137.448 318.613 129.338L312.524 134.527L306.436 139.717C315.56 150.422 328.272 158.536 344.051 164.35L346.817 156.844ZM312.524 134.527L318.642 129.373C311.743 121.184 308.496 112.424 308.496 102.859L300.496 102.859L292.496 102.859C292.496 116.485 297.268 128.837 306.407 139.682L312.524 134.527ZM300.496 102.859H308.496C308.496 93.6005 311.765 84.9635 318.844 76.7366L312.78 71.5186L306.716 66.3005C297.417 77.1076 292.496 89.365 292.496 102.859H300.496ZM312.78 71.5186L318.844 76.7366C325.957 68.4704 336.234 61.591 350.145 56.3626L347.33 48.874L344.516 41.3855C328.739 47.315 315.982 55.5326 306.716 66.3005L312.78 71.5186ZM347.33 48.874L350.145 56.3626C363.925 51.1834 379.919 48.5059 398.258 48.5059V40.5059V32.5059C378.38 32.5059 360.422 35.407 344.516 41.3855L347.33 48.874ZM978.709 143.614V151.614H1031.88V143.614V135.614H978.709V143.614ZM1031.88 164.781V156.781H942.368V164.781V172.781H1031.88V164.781ZM930.368 152.781H938.368V56.5059H930.368H922.368V152.781H930.368ZM942.368 44.5059V52.5059H954.709V44.5059V36.5059H942.368V44.5059ZM966.709 56.5059H958.709V131.614H966.709H974.709V56.5059H966.709ZM36.0355 42.6638L36.1143 50.6634C56.3535 50.4641 77.0128 50.4557 98.0918 50.6384L98.1611 42.6387L98.2304 34.639C77.0567 34.4555 56.2986 34.4639 35.9567 34.6642L36.0355 42.6638ZM98.1611 42.6387L98.1141 50.6385C116.045 50.744 131.225 53.172 143.816 57.713L146.53 50.1875L149.244 42.662C134.537 37.3579 117.471 34.7522 98.2082 34.6388L98.1611 42.6387ZM146.53 50.1875L143.816 57.713C156.484 62.2816 165.537 68.4076 171.562 75.7665L177.752 70.6982L183.942 65.6299C175.636 55.4865 163.875 47.9386 149.244 42.662L146.53 50.1875ZM177.752 70.6982L171.621 75.8378C177.73 83.1247 180.757 91.4706 180.757 101.218L188.757 101.218L196.757 101.218C196.757 87.7743 192.447 75.7743 183.883 65.5587L177.752 70.6982ZM188.757 101.218H180.757C180.757 111.784 178.207 120.757 173.314 128.415L180.056 132.723L186.797 137.03C193.506 126.529 196.757 114.499 196.757 101.218H188.757ZM180.056 132.723L173.314 128.415C168.67 135.684 160.599 142.074 148.129 147.134L151.137 154.547L154.145 161.96C168.632 156.081 179.839 147.92 186.797 137.03L180.056 132.723ZM151.137 154.547L148.18 147.113C135.964 151.971 119.307 154.702 97.8248 154.915L97.9043 162.915L97.9838 170.915C120.521 170.691 139.352 167.843 154.093 161.981L151.137 154.547ZM97.9043 162.915L97.8381 154.915C75.9652 155.096 55.3879 155.09 36.105 154.896L36.0247 162.896L35.9443 170.895C55.3367 171.09 76.0125 171.096 97.9705 170.915L97.9043 162.915ZM24.1992 150.923H32.1992V54.6402H24.1992H16.1992V150.923H24.1992ZM736.74 64.1338V56.1338H704.72V64.1338V72.1338H736.74V64.1338ZM692.72 76.1338H684.72V150.914H692.72H700.72V76.1338H692.72ZM680.72 162.914V154.914H666.332V162.914V170.914H680.72V162.914ZM654.332 150.914H662.332V76.1338H654.332H646.332V150.914H654.332ZM642.332 64.1338V56.1338H610.312V64.1338V72.1338H642.332V64.1338ZM610.312 42.6387V50.6387H736.74V42.6387V34.6387H610.312V42.6387ZM895.263 162.914V154.914H884.918V162.914V170.914H895.263V162.914ZM874.236 156.382L881.357 152.737L877.041 144.305L869.92 147.951L862.799 151.596L867.115 160.028L874.236 156.382ZM859.238 141.419V133.419H800.464V141.419V149.419H859.238V141.419ZM789.782 147.95L782.661 144.305L778.344 152.737L785.465 156.383L792.586 160.028L796.903 151.596L789.782 147.95ZM774.784 162.914V154.914H764.477V162.914V170.914H774.784V162.914ZM753.882 145.278L760.945 149.036L812.159 52.7601L805.096 49.003L798.033 45.2459L746.819 141.521L753.882 145.278ZM815.69 42.6387V50.6387H844.254V42.6387V34.6387H815.69V42.6387ZM854.858 49.0206L847.789 52.766L898.798 149.041L905.867 145.296L912.936 141.551L861.927 45.2752L854.858 49.0206ZM250.828 162.506V154.506H235.836V162.506V170.506H250.828V162.506ZM223.836 150.506H231.836V54.5059H223.836H215.836V150.506H223.836ZM235.836 42.5059V50.5059H250.828V42.5059V34.5059H235.836V42.5059ZM262.828 54.5059H254.828V150.506H262.828H270.828V54.5059H262.828ZM553.406 162.506V154.506H524.377V162.506V170.506H553.406V162.506ZM512.377 150.506H520.377V54.5059H512.377H504.377V150.506H512.377ZM524.377 42.5059V50.5059H553.406V42.5059V34.5059H524.377V42.5059ZM565.406 54.5059H557.406V150.506H565.406H573.406V54.5059H565.406ZM96.3691 63.3145L96.5491 55.3165C89.7395 55.1633 82.0419 55.0901 73.4616 55.096L73.4671 63.096L73.4726 71.096C81.9601 71.0902 89.5306 71.1626 96.1892 71.3124L96.3691 63.3145ZM61.5635 75.0534H53.5635V129.912H61.5635H69.5635V75.0534H61.5635ZM73.5643 141.895L73.5875 149.895C81.7831 149.872 89.1523 149.822 95.6932 149.748L95.6016 141.748L95.51 133.749C89.0245 133.823 81.702 133.872 73.541 133.896L73.5643 141.895ZM95.6016 141.748L95.6878 149.748C116.475 149.524 133.237 145.729 143.676 136.387L138.341 130.426L133.006 124.464C127.065 129.781 115.335 133.535 95.5154 133.749L95.6016 141.748ZM138.341 130.426L143.676 136.387C153.75 127.371 158.625 115.369 158.625 101.218H150.625H142.625C142.625 111.351 139.31 118.822 133.006 124.465L138.341 130.426ZM150.625 101.218L158.625 101.218C158.625 91.5032 155.666 82.8267 149.536 75.6677L143.459 80.8711L137.382 86.0744C140.806 90.0732 142.625 94.9615 142.625 101.218L150.625 101.218ZM143.459 80.8711L149.676 75.8363C143.99 68.8152 136.279 63.7369 126.979 60.3827L124.265 67.9082L121.551 75.4337C128.629 77.9866 133.715 81.5504 137.242 85.9058L143.459 80.8711ZM124.265 67.9082L126.979 60.3827C117.798 57.0718 107.587 55.4319 96.4532 55.3149L96.3691 63.3145L96.2851 71.314C105.966 71.4158 114.352 72.8376 121.551 75.4337L124.265 67.9082ZM826.652 76.7686L819.576 73.0372L804.542 101.549L811.619 105.28L818.695 109.011L833.729 80.4999L826.652 76.7686ZM822.233 122.877V130.877H837.469V122.877V114.877H822.233V122.877ZM848.084 105.28L855.16 101.549L840.126 73.0372L833.05 76.7686L825.973 80.4999L841.007 109.011L848.084 105.28ZM1186.75 115.821V107.821H1134.45V115.821V123.821H1186.75V115.821ZM1134.45 96.459V104.459H1186.75V96.459V88.459H1134.45V96.459ZM1134.45 115.821V107.821C1133.52 107.821 1132.77 107.069 1132.77 106.14H1124.77H1116.77C1116.77 115.905 1124.68 123.821 1134.45 123.821V115.821ZM1186.75 115.821V123.821C1196.51 123.821 1204.43 115.905 1204.43 106.14H1196.43H1188.43C1188.43 107.069 1187.67 107.821 1186.75 107.821V115.821ZM833.05 76.7686L840.403 73.6175C836.428 64.341 823.274 64.338 819.299 73.6184L826.652 76.7686L834.006 79.9187C832.44 83.5738 827.261 83.5711 825.696 79.9196L833.05 76.7686ZM837.469 122.877V130.877C852.526 130.877 862.183 114.867 855.16 101.549L848.084 105.28L841.007 109.011C842.412 111.675 840.48 114.877 837.469 114.877V122.877ZM811.619 105.28L804.542 101.549C797.519 114.867 807.176 130.877 822.233 130.877V122.877V114.877C819.222 114.877 817.291 111.675 818.695 109.011L811.619 105.28ZM61.5635 129.912H53.5635C53.5635 140.952 62.5176 149.928 73.5875 149.895L73.5643 141.895L73.541 133.896C71.3561 133.902 69.5635 132.127 69.5635 129.912H61.5635ZM73.4671 63.096L73.4616 55.096C62.4163 55.1036 53.5635 64.0877 53.5635 75.0534H61.5635H69.5635C69.5635 72.8402 71.339 71.0975 73.4726 71.096L73.4671 63.096ZM553.406 42.5059V50.5059C555.615 50.5059 557.406 52.2967 557.406 54.5059H565.406H573.406C573.406 43.4602 564.452 34.5059 553.406 34.5059V42.5059ZM610.312 64.1338V56.1338C608.795 56.1338 607.564 54.9037 607.564 53.3862H599.564H591.564C591.564 63.7402 599.958 72.1338 610.312 72.1338V64.1338ZM654.332 76.1338H662.332C662.332 65.0881 653.378 56.1338 642.332 56.1338V64.1338V72.1338C644.541 72.1338 646.332 73.9246 646.332 76.1338H654.332ZM666.332 162.914V154.914C664.123 154.914 662.332 153.123 662.332 150.914H654.332H646.332C646.332 161.96 655.286 170.914 666.332 170.914V162.914ZM692.72 150.914H684.72C684.72 153.123 682.929 154.914 680.72 154.914V162.914V170.914C691.765 170.914 700.72 161.96 700.72 150.914H692.72ZM704.72 64.1338V56.1338C693.674 56.1338 684.72 65.0881 684.72 76.1338H692.72H700.72C700.72 73.9247 702.511 72.1338 704.72 72.1338V64.1338ZM736.74 64.1338V72.1338C747.094 72.1338 755.487 63.7402 755.487 53.3862H747.487H739.487C739.487 54.9037 738.257 56.1338 736.74 56.1338V64.1338ZM36.0247 162.896L36.105 154.896C33.9561 154.874 32.1992 153.12 32.1992 150.923H24.1992H16.1992C16.1992 161.846 24.9744 170.785 35.9443 170.895L36.0247 162.896ZM36.0355 42.6638L35.9567 34.6642C24.9863 34.7722 16.1992 43.7089 16.1992 54.6402H24.1992H32.1992C32.1992 52.4442 33.9582 50.6847 36.1143 50.6634L36.0355 42.6638ZM954.709 44.5059V52.5059C956.918 52.5059 958.709 54.2967 958.709 56.5059H966.709H974.709C974.709 45.4602 965.755 36.5059 954.709 36.5059V44.5059ZM930.368 56.5059H938.368C938.368 54.2967 940.159 52.5059 942.368 52.5059V44.5059V36.5059C931.322 36.5059 922.368 45.4602 922.368 56.5059H930.368ZM481.883 96.1318V104.132C482.601 104.132 483.141 104.407 483.427 104.677C483.56 104.803 483.619 104.907 483.644 104.968C483.665 105.016 483.688 105.091 483.681 105.233L491.67 105.648L499.659 106.064C500.222 95.2415 491.017 88.1318 481.883 88.1318V96.1318ZM446.289 128.257L451.717 134.133C454.33 131.719 456.106 128.599 456.528 125.035C456.943 121.524 455.96 118.283 454.315 115.705C451.107 110.678 445.175 107.657 438.89 107.657V115.657V123.657C439.516 123.657 440.023 123.809 440.38 123.994C440.759 124.191 440.862 124.366 440.827 124.312C440.777 124.233 440.56 123.817 440.638 123.156C440.675 122.844 440.768 122.594 440.856 122.431C440.94 122.275 440.98 122.269 440.86 122.381L446.289 128.257ZM457.016 75.5743L453.685 68.3008C452.458 68.8627 450.633 68.8357 448.829 67.6954L444.555 74.4583L440.282 81.2213C445.974 84.8183 453.511 85.9786 460.347 82.8478L457.016 75.5743ZM61.5635 298.912H53.5635C53.5635 309.952 62.5176 318.928 73.5875 318.895L73.5643 310.895L73.541 302.896C71.3561 302.902 69.5635 301.127 69.5635 298.912H61.5635ZM73.4671 232.096L73.4616 224.096C62.4163 224.104 53.5635 233.088 53.5635 244.053H61.5635H69.5635C69.5635 241.84 71.339 240.097 73.4726 240.096L73.4671 232.096ZM1116.98 211.639V219.639C1118.23 219.639 1119.24 220.648 1119.24 221.894H1127.24H1135.24C1135.24 211.812 1127.06 203.639 1116.98 203.639V211.639ZM1013.86 223.639H1021.86C1021.86 221.43 1023.65 219.639 1025.86 219.639V211.639V203.639C1014.82 203.639 1005.86 212.593 1005.86 223.639H1013.86ZM1025.86 331.914V323.914C1023.65 323.914 1021.86 322.123 1021.86 319.914H1013.86H1005.86C1005.86 330.96 1014.82 339.914 1025.86 339.914V331.914ZM1127.24 321.331H1119.24C1119.24 322.757 1118.08 323.914 1116.65 323.914V331.914V339.914C1126.92 339.914 1135.24 331.594 1135.24 321.331H1127.24ZM1063.48 279.57V271.57C1052.44 271.57 1043.48 280.525 1043.48 291.57H1051.48H1059.48C1059.48 289.361 1061.28 287.57 1063.48 287.57V279.57ZM1104.72 269.561H1096.72C1096.72 270.671 1095.82 271.57 1094.71 271.57V279.57V287.57C1104.65 287.57 1112.72 279.507 1112.72 269.561H1104.72ZM857.733 319.914H849.733C849.733 322.123 847.943 323.914 845.733 323.914V331.914V339.914C856.779 339.914 865.733 330.96 865.733 319.914H857.733ZM1211.62 287.057L1217.41 281.537C1217.09 281.209 1216.99 280.93 1216.96 280.685C1216.92 280.393 1216.95 279.999 1217.13 279.57C1217.51 278.693 1218.22 278.22 1219.07 278.195L1218.83 270.198L1218.59 262.202C1203.58 262.649 1194.8 281.017 1205.82 292.577L1211.62 287.057ZM869.839 262.557L875.701 257.112C866.23 246.914 849.183 254.006 849.74 267.913L857.733 267.593L865.727 267.273C865.731 267.375 865.69 267.635 865.517 267.889C865.374 268.101 865.216 268.2 865.106 268.246C864.996 268.292 864.814 268.334 864.563 268.286C864.26 268.229 864.047 268.075 863.977 268.001L869.839 262.557ZM1261.85 334.355V326.355C1260.75 326.355 1259.71 325.907 1258.95 325.116L1253.16 330.636L1247.37 336.156C1251.15 340.115 1256.38 342.355 1261.85 342.355V334.355ZM939.487 331.914V323.914C938.375 323.914 937.313 323.451 936.556 322.636L930.694 328.08L924.832 333.524C928.617 337.599 933.926 339.914 939.487 339.914V331.914ZM1276.37 313.778L1270.77 319.496C1273.34 322.003 1271.56 326.355 1267.98 326.355V334.355V342.355C1285.9 342.355 1294.77 320.595 1281.96 308.06L1276.37 313.778ZM975.714 319.914H967.714C967.714 322.123 965.923 323.914 963.714 323.914V331.914V339.914C974.76 339.914 983.714 330.96 983.714 319.914H975.714ZM1159.32 213.988L1159.27 205.988C1148.27 206.056 1139.43 215.002 1139.43 225.969H1147.43H1155.43C1155.43 223.768 1157.2 222.001 1159.37 221.988L1159.32 213.988ZM512.377 54.5059H520.377C520.377 52.2967 522.168 50.5059 524.377 50.5059V42.5059V34.5059C513.331 34.5059 504.377 43.4602 504.377 54.5059H512.377ZM547.409 211.639V219.639C549.618 219.639 551.409 221.43 551.409 223.639H559.409H567.409C567.409 212.593 558.455 203.639 547.409 203.639V211.639ZM250.828 42.5059V50.5059C253.037 50.5059 254.828 52.2967 254.828 54.5059H262.828H270.828C270.828 43.4602 261.874 34.5059 250.828 34.5059V42.5059ZM547.409 331.914V339.914C558.455 339.914 567.409 330.96 567.409 319.914H559.409H551.409C551.409 322.123 549.618 323.914 547.409 323.914V331.914ZM223.836 54.5059H231.836C231.836 52.2967 233.627 50.5059 235.836 50.5059V42.5059V34.5059C224.79 34.5059 215.836 43.4602 215.836 54.5059H223.836ZM314.167 211.639V219.639C315.412 219.639 316.422 220.648 316.422 221.894H324.422H332.422C332.422 211.812 324.249 203.639 314.167 203.639V211.639ZM235.836 162.506V154.506C233.627 154.506 231.836 152.715 231.836 150.506H223.836H215.836C215.836 161.552 224.79 170.506 235.836 170.506V162.506ZM211.049 223.639H219.049C219.049 221.43 220.84 219.639 223.049 219.639V211.639V203.639C212.003 203.639 203.049 212.593 203.049 223.639H211.049ZM844.254 42.6387V50.6387C845.735 50.6387 847.095 51.4572 847.789 52.766L854.858 49.0206L861.927 45.2752C858.46 38.7311 851.66 34.6387 844.254 34.6387V42.6387ZM324.422 321.331H316.422C316.422 322.757 315.265 323.914 313.838 323.914V331.914V339.914C324.102 339.914 332.422 331.594 332.422 321.331H324.422ZM805.096 49.003L812.159 52.7601C812.853 51.4546 814.211 50.6387 815.69 50.6387V42.6387V34.6387C808.296 34.6387 801.506 38.7181 798.033 45.2459L805.096 49.003ZM313.838 310.747V318.747C315.265 318.747 316.422 319.904 316.422 321.331H324.422H332.422C332.422 311.067 324.102 302.747 313.838 302.747V310.747ZM764.477 162.914V154.914C761.459 154.914 759.528 151.7 760.945 149.036L753.882 145.278L746.819 141.521C739.733 154.843 749.388 170.914 764.477 170.914V162.914ZM248.669 298.747H240.669C240.669 309.793 249.623 318.747 260.669 318.747V310.747V302.747C258.46 302.747 256.669 300.956 256.669 298.747H248.669ZM785.465 156.383L778.344 152.737C777.66 154.073 776.285 154.914 774.784 154.914V162.914V170.914C782.29 170.914 789.165 166.71 792.586 160.028L785.465 156.383ZM260.669 279.57V271.57C249.623 271.57 240.669 280.525 240.669 291.57H248.669H256.669C256.669 289.361 258.46 287.57 260.669 287.57V279.57ZM800.464 141.419V133.419C792.957 133.419 786.082 137.623 782.661 144.305L789.782 147.95L796.903 151.596C797.587 150.26 798.962 149.419 800.464 149.419V141.419ZM301.901 269.561H293.901C293.901 270.671 293.002 271.57 291.892 271.57V279.57V287.57C301.838 287.57 309.901 279.507 309.901 269.561H301.901ZM869.92 147.951L877.041 144.305C873.62 137.623 866.745 133.419 859.238 133.419V141.419V149.419C860.74 149.419 862.115 150.26 862.799 151.596L869.92 147.951ZM291.892 259.552V267.552C293.002 267.552 293.901 268.451 293.901 269.561H301.901H309.901C309.901 259.615 301.838 251.552 291.892 251.552V259.552ZM462.3 55.7178L458.419 62.7136C458.955 63.0107 459.123 63.2815 459.187 63.4102C459.267 63.5704 459.336 63.8229 459.296 64.1883C459.215 64.9364 458.672 66.0168 457.272 66.6583L460.603 73.9318L463.934 81.2053C470.415 78.2372 474.511 72.3131 475.203 65.9079C475.916 59.3166 472.944 52.4737 466.18 48.722L462.3 55.7178ZM382.121 298.016L384.214 305.737C385.754 305.32 388.594 305.934 391.991 309.005L397.356 303.071L402.722 297.137C397.748 292.641 389.379 287.76 380.028 290.294L382.121 298.016ZM736.74 42.6387V50.6387C738.257 50.6387 739.487 51.8688 739.487 53.3862H747.487H755.487C755.487 43.0322 747.094 34.6387 736.74 34.6387V42.6387ZM314.167 232.149V240.149C324.249 240.149 332.422 231.976 332.422 221.894H324.422H316.422C316.422 223.14 315.412 224.149 314.167 224.149V232.149ZM1116.98 232.149V240.149C1127.06 240.149 1135.24 231.976 1135.24 221.894H1127.24H1119.24C1119.24 223.14 1118.23 224.149 1116.98 224.149V232.149ZM1094.71 259.552V267.552C1095.82 267.552 1096.72 268.451 1096.72 269.561H1104.72H1112.72C1112.72 259.615 1104.65 251.552 1094.71 251.552V259.552ZM1159.43 334.355V326.355C1157.22 326.355 1155.43 324.565 1155.43 322.355H1147.43H1139.43C1139.43 333.401 1148.38 342.355 1159.43 342.355V334.355ZM942.368 164.781V156.781C940.159 156.781 938.368 154.99 938.368 152.781H930.368H922.368C922.368 163.827 931.322 172.781 942.368 172.781V164.781ZM789.039 265.132V273.132C789.756 273.132 790.296 273.407 790.582 273.677C790.715 273.803 790.774 273.907 790.8 273.968C790.82 274.016 790.843 274.091 790.836 274.233L798.825 274.648L806.814 275.064C807.377 264.242 798.173 257.132 789.039 257.132V265.132ZM524.377 162.506V154.506C522.168 154.506 520.377 152.715 520.377 150.506H512.377H504.377C504.377 161.552 513.331 170.506 524.377 170.506V162.506ZM523.58 223.639H531.58C531.58 221.43 533.371 219.639 535.58 219.639V211.639V203.639C524.534 203.639 515.58 212.593 515.58 223.639H523.58ZM394.979 102.118L402.357 105.213C402.631 104.558 403.272 104.132 403.982 104.132V96.1318V88.1318C396.827 88.1318 390.37 92.4255 387.602 99.0242L394.979 102.118ZM764.173 244.574L760.841 237.301C759.614 237.863 757.789 237.836 755.985 236.695L751.711 243.458L747.438 250.221C753.13 253.818 760.668 254.979 767.504 251.848L764.173 244.574ZM553.406 162.506V170.506C564.452 170.506 573.406 161.552 573.406 150.506H565.406H557.406C557.406 152.715 555.615 154.506 553.406 154.506V162.506ZM535.58 331.914V323.914C533.371 323.914 531.58 322.123 531.58 319.914H523.58H515.58C515.58 330.96 524.534 339.914 535.58 339.914V331.914ZM403.982 115.657V107.657C402.723 107.657 401.869 106.374 402.357 105.213L394.979 102.118L387.602 99.0242C382.693 110.729 391.289 123.657 403.982 123.657V115.657ZM769.455 224.718L765.575 231.714C766.11 232.011 766.278 232.282 766.342 232.41C766.423 232.571 766.491 232.823 766.452 233.188C766.371 233.937 765.828 235.017 764.427 235.658L767.758 242.932L771.09 250.205C777.57 247.237 781.666 241.313 782.359 234.908C783.071 228.317 780.099 221.474 773.336 217.722L769.455 224.718ZM599.564 53.3862H607.564C607.564 51.8688 608.795 50.6387 610.312 50.6387V42.6387V34.6387C599.958 34.6387 591.564 43.0322 591.564 53.3862H599.564ZM36.0247 331.896L36.105 323.896C33.9561 323.874 32.1992 322.12 32.1992 319.923H24.1992H16.1992C16.1992 330.846 24.9744 339.785 35.9443 339.895L36.0247 331.896ZM367.754 314.974L373.259 309.168C373.07 308.99 373.186 309.027 373.24 309.297C373.287 309.529 373.226 309.63 373.262 309.541C373.303 309.437 373.441 309.184 373.773 308.898C374.095 308.62 374.55 308.356 375.134 308.198L373.041 300.477L370.948 292.756C365.234 294.304 360.512 298.326 358.403 303.607C356.161 309.22 357.109 315.904 362.25 320.779L367.754 314.974ZM250.828 162.506V170.506C261.874 170.506 270.828 161.552 270.828 150.506H262.828H254.828C254.828 152.715 253.037 154.506 250.828 154.506V162.506ZM223.049 331.914V323.914C220.84 323.914 219.049 322.123 219.049 319.914H211.049H203.049C203.049 330.96 212.003 339.914 223.049 339.914V331.914ZM1116.65 310.747V318.747C1118.08 318.747 1119.24 319.904 1119.24 321.331H1127.24H1135.24C1135.24 311.067 1126.92 302.747 1116.65 302.747V310.747ZM470.445 238.014L467.474 230.586C466.25 231.076 464.074 231.016 461.352 229.401L457.272 236.282L453.191 243.163C458.475 246.297 465.997 248.41 473.416 245.442L470.445 238.014ZM895.263 162.914V170.914C910.337 170.914 919.993 154.871 912.936 141.551L905.867 145.296L898.798 149.041C900.209 151.705 898.278 154.914 895.263 154.914V162.914ZM260.669 232.149V224.149C249.623 224.149 240.669 233.104 240.669 244.149H248.669H256.669C256.669 241.94 258.46 240.149 260.669 240.149V232.149ZM832.599 331.914V323.914C830.394 323.914 828.604 322.128 828.599 319.923L820.6 319.94L812.6 319.957C812.623 330.986 821.57 339.914 832.599 339.914V331.914ZM978.709 143.614V135.614C976.5 135.614 974.709 133.823 974.709 131.614H966.709H958.709C958.709 142.66 967.663 151.614 978.709 151.614V143.614ZM753.444 297.257L758.872 303.133C761.485 300.719 763.261 297.599 763.683 294.035C764.098 290.524 763.115 287.283 761.47 284.704C758.262 279.678 752.33 276.657 746.045 276.657V284.657V292.657C746.672 292.657 747.179 292.809 747.535 292.994C747.914 293.191 748.017 293.366 747.982 293.312C747.932 293.233 747.715 292.817 747.793 292.156C747.83 291.844 747.923 291.594 748.011 291.431C748.095 291.275 748.136 291.269 748.015 291.381L753.444 297.257ZM820.395 223.664L828.395 223.647C828.39 221.435 830.182 219.639 832.395 219.639V211.639V203.639C821.332 203.639 812.371 212.619 812.395 223.681L820.395 223.664ZM1031.88 143.614V151.614C1033.31 151.614 1034.46 152.771 1034.46 154.198H1042.46H1050.46C1050.46 143.934 1042.14 135.614 1031.88 135.614V143.614ZM711.137 284.657V276.657C709.878 276.657 709.025 275.374 709.512 274.213L702.135 271.118L694.757 268.024C689.848 279.729 698.444 292.657 711.137 292.657V284.657ZM1063.48 232.149V224.149C1052.44 224.149 1043.48 233.104 1043.48 244.149H1051.48H1059.48C1059.48 241.94 1061.28 240.149 1063.48 240.149V232.149ZM1124.77 106.14H1132.77C1132.77 105.212 1133.52 104.459 1134.45 104.459V96.459V88.459C1124.68 88.459 1116.77 96.3751 1116.77 106.14H1124.77ZM1194.49 234.115L1194.51 226.115C1183.44 226.083 1174.49 235.06 1174.49 246.099H1182.49H1190.49C1190.49 243.883 1192.28 242.108 1194.47 242.115L1194.49 234.115ZM938.605 223.639H946.605C946.605 221.43 948.396 219.639 950.605 219.639V211.639V203.639C939.56 203.639 930.605 212.593 930.605 223.639H938.605ZM856.606 211.639V219.639C857.716 219.639 858.776 220.1 859.533 220.913L865.387 215.461L871.242 210.008C867.458 205.946 862.157 203.639 856.606 203.639V211.639ZM1051.48 247.552H1043.48C1043.48 258.597 1052.44 267.552 1063.48 267.552V259.552V251.552C1061.28 251.552 1059.48 249.761 1059.48 247.552H1051.48ZM1186.75 96.459V104.459C1187.67 104.459 1188.43 105.212 1188.43 106.14H1196.43H1204.43C1204.43 96.3751 1196.51 88.459 1186.75 88.459V96.459ZM1182.49 322.355H1174.49C1174.49 324.565 1172.7 326.355 1170.49 326.355V334.355V342.355C1181.54 342.355 1190.49 333.401 1190.49 322.355H1182.49ZM1042.46 154.198H1034.46C1034.46 155.625 1033.31 156.781 1031.88 156.781V164.781V172.781C1042.14 172.781 1050.46 164.461 1050.46 154.198H1042.46ZM702.135 271.118L709.512 274.213C709.787 273.558 710.427 273.132 711.137 273.132V265.132V257.132C703.982 257.132 697.525 261.426 694.757 268.024L702.135 271.118ZM884.918 162.914V154.914C883.417 154.914 882.042 154.073 881.357 152.737L874.236 156.382L867.115 160.028C870.536 166.71 877.411 170.914 884.918 170.914V162.914ZM248.669 247.552H240.669C240.669 258.597 249.623 267.552 260.669 267.552V259.552V251.552C258.46 251.552 256.669 249.761 256.669 247.552H248.669ZM36.0355 211.664L35.9567 203.664C24.9863 203.772 16.1992 212.709 16.1992 223.64H24.1992H32.1992C32.1992 221.444 33.9582 219.685 36.1143 219.663L36.0355 211.664ZM938.605 275.961L930.615 276.344C930.61 276.246 930.649 275.987 930.819 275.732C930.961 275.521 931.117 275.422 931.223 275.377C931.33 275.332 931.51 275.29 931.76 275.336C932.062 275.392 932.274 275.545 932.34 275.617L926.486 281.069L920.632 286.521C930.158 296.751 947.266 289.54 946.596 275.578L938.605 275.961ZM1268.74 280.043L1265 272.969C1259.04 276.118 1254.83 281.783 1253.2 287.836C1251.54 293.988 1252.38 301.498 1258.04 307.04L1263.64 301.321L1269.23 295.603C1268.62 295.009 1268.13 293.928 1268.65 291.999C1269.2 289.971 1270.68 288.065 1272.47 287.117L1268.74 280.043ZM963.714 211.639V219.639C965.923 219.639 967.714 221.43 967.714 223.639H975.714H983.714C983.714 212.593 974.76 203.639 963.714 203.639V211.639ZM1051.48 298.747H1043.48C1043.48 309.793 1052.44 318.747 1063.48 318.747V310.747V302.747C1061.28 302.747 1059.48 300.956 1059.48 298.747H1051.48ZM477.035 219.193L473.368 226.303C473.837 226.545 473.85 226.697 473.801 226.6C473.772 226.539 473.821 226.578 473.788 226.794C473.713 227.275 473.226 228.285 471.798 228.857L474.769 236.284L477.74 243.712C484.203 241.127 488.626 235.539 489.6 229.238C490.624 222.613 487.683 215.683 480.701 212.083L477.035 219.193Z" fill="#DBFC3D" mask="url(#path-1-outside-1_573_60)"/>
</g>
<g filter="url(#filter1_f_573_60)">
<path d="M1161.47 225.969C1161.47 219.385 1166.77 214.029 1173.35 213.988C1192.94 213.867 1212.52 213.898 1232.1 214.08C1244.9 214.189 1256.58 215.94 1267.16 219.331C1277.74 222.613 1286.01 227.152 1291.99 232.95C1298.13 238.638 1301.2 245.093 1301.2 252.312C1301.2 258.219 1299.58 263.579 1296.34 268.393C1293.27 273.096 1288.74 276.98 1282.77 280.043C1275.01 284.14 1271.4 295.185 1277.67 301.321L1290.41 313.778C1298.09 321.299 1292.77 334.355 1282.01 334.355H1275.88C1272.6 334.355 1269.46 333.011 1267.2 330.636L1225.65 287.057C1219.73 280.851 1224.3 270.454 1232.87 270.198C1242.25 270.089 1249.5 268.502 1254.62 265.439C1259.91 262.267 1262.55 257.891 1262.55 252.312C1262.55 249.031 1261.1 246.078 1258.2 243.452C1255.47 240.717 1251.55 238.53 1246.43 236.889C1241.48 235.138 1235.85 234.263 1229.54 234.263C1223.79 234.187 1216.78 234.138 1208.53 234.115C1201.9 234.096 1196.53 239.471 1196.53 246.099V322.355C1196.53 328.983 1191.15 334.355 1184.53 334.355H1173.47C1166.84 334.355 1161.47 328.983 1161.47 322.355V225.969ZM427.79 209.506C442.463 209.506 455.088 211.202 465.666 214.593C469.763 215.864 473.552 217.397 477.035 219.193C484.588 223.088 482.66 233.128 474.769 236.284L470.445 238.014C466.123 239.743 461.275 238.656 457.272 236.282C454.609 234.704 451.692 233.436 448.52 232.479C442.889 230.728 436.235 229.853 428.558 229.853C420.539 229.853 414.226 230.892 409.619 232.971C405.183 234.94 402.966 237.784 402.966 241.503C402.966 245.332 405.951 248.668 411.923 251.512C417.894 254.356 427.278 257.365 440.074 260.537C459.354 265.35 473.771 270.983 483.325 277.438C492.88 283.782 497.656 291.44 497.656 300.41C497.656 306.645 494.926 312.333 489.467 317.475C484.178 322.507 476.415 326.554 466.179 329.617C456.113 332.571 444.169 334.048 430.35 334.048C418.065 334.048 406.975 332.68 397.079 329.945C387.184 327.211 379.079 323.601 372.767 319.116C370.921 317.773 369.25 316.392 367.754 314.974C362.53 310.02 366.092 302.36 373.041 300.477L382.121 298.016C387.567 296.54 393.171 299.287 397.356 303.071C399.771 305.254 402.664 307.156 406.037 308.778C413.032 311.951 421.137 313.537 430.35 313.537C439.733 313.537 446.899 312.388 451.847 310.091C456.794 307.684 459.268 304.239 459.269 299.754C459.269 294.831 456.539 290.784 451.079 287.611C445.619 284.439 436.15 281.266 422.672 278.094C402.71 273.281 388.378 268.03 379.677 262.342C370.975 256.544 366.625 249.379 366.625 240.847C366.625 234.83 369.013 229.469 373.79 224.766C378.738 219.952 385.819 216.234 395.032 213.608C404.245 210.874 415.165 209.506 427.79 209.506ZM705.413 209.506C721.963 209.506 737.063 211.858 750.712 216.562C757.561 218.867 763.809 221.586 769.455 224.718C777.036 228.923 775.64 239.322 767.758 242.932L764.173 244.574C760.141 246.421 755.46 245.827 751.711 243.458C746.277 240.024 740.569 237.349 734.589 235.432C726.399 232.697 716.674 231.329 705.413 231.329C694.835 231.329 684.94 233.025 675.727 236.416C666.684 239.698 659.348 244.456 653.718 250.691C648.258 256.817 645.527 263.874 645.527 271.859C645.527 280.173 648.258 287.338 653.718 293.354C659.177 299.371 666.428 303.911 675.471 306.974C684.684 310.037 694.665 311.568 705.413 311.568C715.309 311.568 724.181 310.474 732.029 308.286C740.048 306.098 746.532 302.981 751.479 298.934C752.17 298.388 752.825 297.829 753.444 297.257C759.069 292.06 753.704 284.657 746.045 284.657H711.137C704.161 284.657 699.436 277.552 702.135 271.118C703.656 267.492 707.205 265.132 711.137 265.132H789.039C794.465 265.132 799.107 269.23 798.825 274.648C798.484 286.244 794.475 296.527 786.797 305.497C779.119 314.467 768.285 321.468 754.295 326.5C740.305 331.532 724.01 334.048 705.413 334.048C685.963 334.048 668.817 331.313 653.974 325.844C639.13 320.374 627.699 312.935 619.68 303.527C611.661 294.01 607.651 283.455 607.651 271.859C607.651 260.483 611.746 250.036 619.936 240.519C628.125 231.002 639.642 223.453 654.485 217.874C669.329 212.295 686.305 209.506 705.413 209.506ZM24.1992 223.64C24.1992 217.077 29.4722 211.728 36.0355 211.664C56.326 211.464 77.0347 211.456 98.1611 211.639C116.758 211.748 132.881 214.265 146.53 219.188C160.179 224.11 170.586 230.947 177.752 239.698C185.088 248.449 188.757 258.622 188.757 270.218C188.757 282.141 185.857 292.643 180.056 301.723C174.255 310.802 164.615 318.077 151.137 323.547C137.658 328.907 119.914 331.696 97.9043 331.915C75.9889 332.096 55.3623 332.09 36.0247 331.896C29.4652 331.83 24.1992 326.483 24.1992 319.923V223.64ZM335.342 221.894C335.342 227.558 330.75 232.149 325.086 232.149H271.589C264.961 232.149 259.589 237.522 259.589 244.149V247.552C259.589 254.179 264.961 259.552 271.589 259.552H302.812C308.34 259.552 312.821 264.033 312.821 269.561C312.821 275.089 308.34 279.57 302.812 279.57H271.589C264.961 279.57 259.589 284.943 259.589 291.57V298.747C259.589 305.374 264.961 310.747 271.589 310.747H324.758C330.603 310.747 335.342 315.485 335.342 321.331C335.342 327.176 330.603 331.914 324.758 331.914H233.969C227.341 331.914 221.969 326.541 221.969 319.914V223.639C221.969 217.011 227.341 211.639 233.969 211.639H325.086C330.75 211.639 335.342 216.23 335.342 221.894ZM570.328 319.914C570.328 326.541 564.956 331.914 558.328 331.914H546.499C539.872 331.914 534.499 326.541 534.499 319.914V223.639C534.499 217.011 539.872 211.639 546.499 211.639H558.328C564.956 211.639 570.328 217.011 570.328 223.639V319.914ZM935.844 281.069C940.291 285.844 948.276 282.478 947.964 275.961V223.639C947.964 217.011 953.336 211.639 959.964 211.639H973.072C979.7 211.639 985.072 217.011 985.072 223.639V319.914C985.072 326.541 979.7 331.914 973.072 331.914H948.845C945.509 331.914 942.323 330.525 940.053 328.08L879.198 262.557C874.781 257.801 866.832 261.108 867.092 267.593V319.914C867.092 326.541 861.719 331.914 855.092 331.914H841.958C835.34 331.914 829.972 326.557 829.958 319.94L829.753 223.664C829.739 217.027 835.116 211.639 841.753 211.639H865.964C869.295 211.639 872.476 213.023 874.746 215.461L935.844 281.069ZM1136.59 221.894C1136.59 227.558 1132 232.149 1126.34 232.149H1072.84C1066.21 232.149 1060.84 237.522 1060.84 244.149V247.552C1060.84 254.179 1066.21 259.552 1072.84 259.552H1104.06C1109.59 259.552 1114.07 264.033 1114.07 269.561C1114.07 275.089 1109.59 279.57 1104.06 279.57H1072.84C1066.21 279.57 1060.84 284.943 1060.84 291.57V298.747C1060.84 305.374 1066.21 310.747 1072.84 310.747H1126.01C1131.86 310.747 1136.59 315.485 1136.59 321.331C1136.59 327.176 1131.86 331.914 1126.01 331.914H1035.22C1028.59 331.914 1023.22 326.541 1023.22 319.914V223.639C1023.22 217.011 1028.59 211.639 1035.22 211.639H1126.34C1132 211.639 1136.59 216.23 1136.59 221.894ZM96.3691 232.314C89.6351 232.163 82.001 232.09 73.4671 232.096C66.8776 232.101 61.5635 237.464 61.5635 244.053V298.912C61.5635 305.54 66.9369 310.915 73.5643 310.895C81.7425 310.872 89.0884 310.823 95.6016 310.748C115.905 310.529 130.151 306.755 138.341 299.426C146.53 292.097 150.625 282.36 150.625 270.218C150.625 262.232 148.236 255.45 143.459 249.871C138.852 244.183 132.454 239.862 124.265 236.908C116.075 233.955 106.777 232.424 96.3691 232.314ZM398.258 40.5059C414.807 40.5059 429.907 42.8577 443.557 47.5615C450.406 49.8671 456.654 52.5858 462.3 55.7178C469.881 59.9228 468.484 70.3222 460.603 73.9318L457.016 75.5743C452.985 77.4206 448.304 76.827 444.555 74.4583C439.121 71.0244 433.414 68.3488 427.434 66.4316C419.244 63.6969 409.518 62.3291 398.258 62.3291C387.68 62.3291 377.784 64.0249 368.571 67.416C359.529 70.6978 352.192 75.4561 346.562 81.6914C341.102 87.8173 338.372 94.8738 338.372 102.859C338.372 111.173 341.102 118.338 346.562 124.354C352.021 130.371 359.273 134.911 368.315 137.974C377.528 141.037 387.509 142.568 398.258 142.568C408.153 142.568 417.026 141.474 424.874 139.286C432.893 137.098 439.376 133.981 444.324 129.934C445.015 129.388 445.669 128.829 446.289 128.257C451.914 123.06 446.549 115.657 438.89 115.657H403.982C397.006 115.657 392.281 108.552 394.979 102.118C396.5 98.4917 400.049 96.1318 403.982 96.1318H481.883C487.31 96.1318 491.952 100.23 491.67 105.648C491.329 117.244 487.319 127.527 479.642 136.497C471.964 145.467 461.13 152.468 447.14 157.5C433.149 162.532 416.855 165.048 398.258 165.048C378.808 165.048 361.661 162.313 346.817 156.844C331.974 151.374 320.543 143.935 312.524 134.527C304.506 125.01 300.496 114.455 300.496 102.859C300.496 91.4827 304.591 81.0356 312.78 71.5186C320.97 62.0015 332.487 54.453 347.33 48.874C362.173 43.2952 379.149 40.5059 398.258 40.5059ZM976.504 128.747C976.504 135.374 981.876 140.747 988.504 140.747H1040.67C1047.07 140.747 1052.26 145.933 1052.26 152.331C1052.26 158.728 1047.07 163.914 1040.67 163.914H950.163C943.536 163.914 938.163 158.541 938.163 151.914V53.6387C938.163 47.0113 943.536 41.6387 950.163 41.6387H964.504C971.131 41.6387 976.504 47.0113 976.504 53.6387V128.747ZM24.1992 54.6402C24.1992 48.0766 29.4722 42.7284 36.0355 42.6638C56.326 42.464 77.0347 42.4556 98.1611 42.6387C116.758 42.7481 132.881 45.2649 146.53 50.1875C160.179 55.1101 170.586 61.9471 177.752 70.6982C185.088 79.4495 188.757 89.6224 188.757 101.218C188.757 113.141 185.857 123.643 180.056 132.723C174.255 141.802 164.615 149.077 151.137 154.547C137.658 159.907 119.914 162.696 97.9043 162.915C75.9889 163.096 55.3623 163.09 36.0247 162.896C29.4652 162.83 24.1992 157.483 24.1992 150.923V54.6402ZM263.171 150.914C263.171 157.541 257.798 162.914 251.171 162.914H239.342C232.714 162.914 227.342 157.541 227.342 150.914V54.6387C227.342 48.0113 232.714 42.6387 239.342 42.6387H251.171C257.798 42.6387 263.171 48.0113 263.171 54.6387V150.914ZM566.079 150.914C566.079 157.541 560.707 162.914 554.079 162.914H542.25C535.623 162.914 530.25 157.541 530.25 150.914V54.6387C530.25 48.0113 535.623 42.6387 542.25 42.6387H554.079C560.707 42.6387 566.079 48.0113 566.079 54.6387V150.914ZM747.487 53.3862C747.487 59.3219 742.675 64.1338 736.74 64.1338H704.72C698.092 64.1338 692.72 69.5064 692.72 76.1338V150.914C692.72 157.541 687.347 162.914 680.72 162.914H666.332C659.705 162.914 654.332 157.541 654.332 150.914V76.1338C654.332 69.5064 648.959 64.1338 642.332 64.1338H610.312C604.376 64.1338 599.564 59.3219 599.564 53.3862C599.564 47.4505 604.376 42.6387 610.312 42.6387H736.74C742.675 42.6387 747.487 47.4505 747.487 53.3862ZM905.867 145.296C910.101 153.288 904.308 162.914 895.263 162.914H884.918C880.414 162.914 876.289 160.392 874.236 156.382L869.92 147.951C867.867 143.941 863.743 141.419 859.238 141.419H800.464C795.959 141.419 791.835 143.941 789.782 147.95L785.465 156.383C783.412 160.392 779.288 162.914 774.783 162.914H764.477C755.423 162.914 749.63 153.271 753.882 145.278L805.096 49.003C807.179 45.0863 811.254 42.6387 815.69 42.6387H844.254C848.698 42.6387 852.778 45.0941 854.858 49.0206L905.867 145.296ZM96.3691 63.3145C89.6351 63.163 82.001 63.0902 73.4671 63.096C66.8776 63.1005 61.5635 68.464 61.5635 75.0534V129.912C61.5635 136.54 66.9369 141.915 73.5643 141.895C81.7425 141.872 89.0884 141.823 95.6016 141.748C115.905 141.529 130.151 137.755 138.341 130.426C146.53 123.097 150.625 113.36 150.625 101.218C150.625 93.2324 148.236 86.45 143.459 80.8711C138.852 75.1828 132.454 70.8618 124.265 67.9082C116.075 64.9547 106.777 63.4238 96.3691 63.3145ZM826.652 76.7686L811.619 105.28C807.405 113.271 813.199 122.877 822.233 122.877H837.469C846.503 122.877 852.297 113.271 848.084 105.28L833.05 76.7686C831.845 73.9561 827.857 73.9559 826.652 76.7686ZM1196.43 106.14C1196.43 111.487 1192.09 115.821 1186.75 115.821H1134.45C1129.1 115.821 1124.77 111.487 1124.77 106.14C1124.77 100.793 1129.1 96.459 1134.45 96.459H1186.75C1192.09 96.459 1196.43 100.793 1196.43 106.14Z" fill="black"/>
</g>
<g filter="url(#filter2_f_573_60)">
<ellipse cx="1041.7" cy="159.506" rx="13.5" ry="10" fill="white"/>
</g>
<g filter="url(#filter3_f_573_60)">
<ellipse cx="1169.7" cy="324.51" rx="13.5" ry="10" fill="white"/>
</g>
<g filter="url(#filter4_f_573_60)">
<ellipse cx="231.699" cy="324.506" rx="13.5" ry="10" fill="white"/>
</g>
<g filter="url(#filter5_f_573_60)">
<ellipse cx="258.699" cy="159.506" rx="13.5" ry="10" fill="white"/>
</g>
<g filter="url(#filter6_f_573_60)">
<ellipse cx="60.6992" cy="69.5059" rx="13.5" ry="10" fill="white"/>
</g>
<g filter="url(#filter7_f_573_60)">
<ellipse cx="532.699" cy="247.506" rx="13.5" ry="10" fill="white"/>
</g>
<g filter="url(#filter8_f_573_60)">
<ellipse cx="948.747" cy="50.4467" rx="11.3405" ry="13.3566" transform="rotate(24.1077 948.747 50.4467)" fill="white"/>
</g>
<defs>
<filter id="filter0_f_573_60" x="-0.000782013" y="16.3059" width="1311.36" height="342.25" filterUnits="userSpaceOnUse" color-interpolation-filters="sRGB">
<feFlood flood-opacity="0" result="BackgroundImageFix"/>
<feBlend mode="normal" in="SourceGraphic" in2="BackgroundImageFix" result="shape"/>
<feGaussianBlur stdDeviation="8.1" result="effect1_foregroundBlur_573_60"/>
</filter>
<filter id="filter1_f_573_60" x="20.1992" y="36.5059" width="1285" height="301.85" filterUnits="userSpaceOnUse" color-interpolation-filters="sRGB">
<feFlood flood-opacity="0" result="BackgroundImageFix"/>
<feBlend mode="normal" in="SourceGraphic" in2="BackgroundImageFix" result="shape"/>
<feGaussianBlur stdDeviation="2" result="effect1_foregroundBlur_573_60"/>
</filter>
<filter id="filter2_f_573_60" x="994.699" y="116.006" width="94" height="87" filterUnits="userSpaceOnUse" color-interpolation-filters="sRGB">
<feFlood flood-opacity="0" result="BackgroundImageFix"/>
<feBlend mode="normal" in="SourceGraphic" in2="BackgroundImageFix" result="shape"/>
<feGaussianBlur stdDeviation="16.75" result="effect1_foregroundBlur_573_60"/>
</filter>
<filter id="filter3_f_573_60" x="1122.7" y="281.01" width="94" height="87" filterUnits="userSpaceOnUse" color-interpolation-filters="sRGB">
<feFlood flood-opacity="0" result="BackgroundImageFix"/>
<feBlend mode="normal" in="SourceGraphic" in2="BackgroundImageFix" result="shape"/>
<feGaussianBlur stdDeviation="16.75" result="effect1_foregroundBlur_573_60"/>
</filter>
<filter id="filter4_f_573_60" x="181.999" y="278.306" width="99.4" height="92.4" filterUnits="userSpaceOnUse" color-interpolation-filters="sRGB">
<feFlood flood-opacity="0" result="BackgroundImageFix"/>
<feBlend mode="normal" in="SourceGraphic" in2="BackgroundImageFix" result="shape"/>
<feGaussianBlur stdDeviation="18.1" result="effect1_foregroundBlur_573_60"/>
</filter>
<filter id="filter5_f_573_60" x="209.799" y="114.106" width="97.8" height="90.8" filterUnits="userSpaceOnUse" color-interpolation-filters="sRGB">
<feFlood flood-opacity="0" result="BackgroundImageFix"/>
<feBlend mode="normal" in="SourceGraphic" in2="BackgroundImageFix" result="shape"/>
<feGaussianBlur stdDeviation="17.7" result="effect1_foregroundBlur_573_60"/>
</filter>
<filter id="filter6_f_573_60" x="13.3992" y="25.7059" width="94.6" height="87.6" filterUnits="userSpaceOnUse" color-interpolation-filters="sRGB">
<feFlood flood-opacity="0" result="BackgroundImageFix"/>
<feBlend mode="normal" in="SourceGraphic" in2="BackgroundImageFix" result="shape"/>
<feGaussianBlur stdDeviation="16.9" result="effect1_foregroundBlur_573_60"/>
</filter>
<filter id="filter7_f_573_60" x="485.199" y="203.506" width="95" height="88" filterUnits="userSpaceOnUse" color-interpolation-filters="sRGB">
<feFlood flood-opacity="0" result="BackgroundImageFix"/>
<feBlend mode="normal" in="SourceGraphic" in2="BackgroundImageFix" result="shape"/>
<feGaussianBlur stdDeviation="17" result="effect1_foregroundBlur_573_60"/>
</filter>
<filter id="filter8_f_573_60" x="899.644" y="0.000389099" width="98.2072" height="100.892" filterUnits="userSpaceOnUse" color-interpolation-filters="sRGB">
<feFlood flood-opacity="0" result="BackgroundImageFix"/>
<feBlend mode="normal" in="SourceGraphic" in2="BackgroundImageFix" result="shape"/>
<feGaussianBlur stdDeviation="18.7" result="effect1_foregroundBlur_573_60"/>
</filter>
</defs>
</svg>
