<svg width="751" height="89" viewBox="0 0 751 89" fill="none" xmlns="http://www.w3.org/2000/svg">
<path d="M10.8441 12.0144C9.40414 12.0144 8.06914 12.3744 6.83914 13.0944C5.63914 13.7844 4.67914 14.7594 3.95914 16.0194C3.26914 17.2494 2.92414 18.6594 2.92414 20.2494C2.92414 21.9594 3.26914 23.4444 3.95914 24.7044C4.64914 25.9344 5.57914 26.8794 6.74914 27.5394C7.94914 28.1694 9.31414 28.4844 10.8441 28.4844C12.3741 28.4844 13.7241 28.1694 14.8941 27.5394C16.0941 26.8794 17.0391 25.9344 17.7291 24.7044C18.4191 23.4444 18.7641 21.9594 18.7641 20.2494C18.7641 18.6594 18.4041 17.2494 17.6841 16.0194C16.9941 14.7594 16.0341 13.7844 14.8041 13.0944C13.6041 12.3744 12.2841 12.0144 10.8441 12.0144ZM10.8441 31.4994C8.77414 31.4994 6.91414 31.0194 5.26414 30.0594C3.64414 29.0994 2.35414 27.7644 1.39414 26.0544C0.464141 24.3444 -0.000859339 22.4094 -0.000859339 20.2494C-0.000859339 18.0594 0.479141 16.1244 1.43914 14.4444C2.39914 12.7344 3.70414 11.4144 5.35414 10.4844C7.00414 9.52437 8.83414 9.04437 10.8441 9.04437C12.8541 9.04437 14.6841 9.52437 16.3341 10.4844C17.9841 11.4144 19.2891 12.7344 20.2491 14.4444C21.2091 16.1244 21.6891 18.0594 21.6891 20.2494C21.6891 22.4094 21.2091 24.3444 20.2491 26.0544C19.3191 27.7644 18.0291 29.0994 16.3791 30.0594C14.7591 31.0194 12.9141 31.4994 10.8441 31.4994ZM32.0198 30.7344V12.4194H25.1348V9.58437H41.7398V12.4194H34.8548V30.7344H32.0198ZM57.8277 18.5394C59.9877 18.5694 62.1477 18.5694 64.3077 18.5394C65.5377 18.5094 66.4977 18.1944 67.1877 17.5944C67.9077 16.9644 68.2677 16.1394 68.2677 15.1194C68.2677 14.2494 67.9377 13.5894 67.2777 13.1394C66.6177 12.6594 65.6577 12.4044 64.3977 12.3744C62.2077 12.3144 60.0177 12.3144 57.8277 12.3744V18.5394ZM57.8727 27.9444C60.5127 28.0044 63.1527 28.0044 65.7927 27.9444C67.1127 27.9144 68.1027 27.6144 68.7627 27.0444C69.4227 26.4744 69.7527 25.6044 69.7527 24.4344C69.7527 23.4144 69.3477 22.6194 68.5377 22.0494C67.7277 21.4794 66.7527 21.1794 65.6127 21.1494C63.0327 21.0894 60.4527 21.0894 57.8727 21.1494V27.9444ZM55.1727 9.58437C58.3527 9.55437 61.5477 9.55437 64.7577 9.58437C65.9577 9.61437 67.0377 9.83937 67.9977 10.2594C68.9877 10.6494 69.7527 11.2494 70.2927 12.0594C70.8627 12.8394 71.1477 13.7844 71.1477 14.8944C71.1477 16.1244 70.8927 17.1594 70.3827 17.9994C69.8727 18.8094 69.1077 19.3344 68.0877 19.5744C68.9277 19.6944 69.6927 19.9644 70.3827 20.3844C71.0727 20.7744 71.6127 21.3444 72.0027 22.0944C72.3927 22.8144 72.5877 23.6694 72.5877 24.6594C72.5877 26.6394 71.9727 28.1394 70.7427 29.1594C69.5127 30.1794 67.9377 30.7044 66.0177 30.7344C62.3877 30.7944 58.7727 30.7944 55.1727 30.7344V9.58437ZM95.4948 30.7344H92.7948V15.5694L93.0198 11.4744L93.7398 11.5644L81.3648 30.7344H77.8098V9.58437H80.5098V24.7494L80.2848 28.8444L79.5648 28.7544L91.9848 9.58437H95.4948V30.7344ZM104.109 30.1494C102.429 29.3094 101.094 28.0794 100.104 26.4594L102.624 24.7944C103.374 26.0244 104.409 26.9694 105.729 27.6294C107.049 28.2894 108.504 28.6194 110.094 28.6194C111.924 28.6194 113.499 28.3044 114.819 27.6744C116.139 27.0144 116.799 26.0844 116.799 24.8844C116.799 24.1044 116.559 23.4444 116.079 22.9044C115.629 22.3344 115.029 21.8994 114.279 21.5994C113.529 21.2994 112.719 21.1194 111.849 21.0594C111.219 21.0294 110.574 21.0144 109.914 21.0144V18.3594C110.574 18.3294 111.219 18.3144 111.849 18.3144C113.109 18.2244 114.114 17.9094 114.864 17.3694C115.614 16.7994 115.989 16.0344 115.989 15.0744C115.989 13.9944 115.419 13.1694 114.279 12.5994C113.139 12.0294 111.744 11.7444 110.094 11.7444C108.534 11.7444 107.154 12.1044 105.954 12.8244C104.754 13.5144 103.719 14.5344 102.849 15.8844L100.329 14.2194C101.379 12.5394 102.669 11.2494 104.199 10.3494C105.759 9.41937 107.724 8.95437 110.094 8.95437C112.794 8.95437 114.984 9.50937 116.664 10.6194C118.374 11.6994 119.229 13.1844 119.229 15.0744C119.229 16.0644 118.884 16.9644 118.194 17.7744C117.504 18.5844 116.679 19.2144 115.719 19.6644C116.859 19.9944 117.879 20.6244 118.779 21.5544C119.679 22.4844 120.129 23.6244 120.129 24.9744C120.129 27.0444 119.199 28.6344 117.339 29.7444C115.509 30.8544 113.094 31.4094 110.094 31.4094C107.814 31.4094 105.819 30.9894 104.109 30.1494ZM131.571 40.6344H128.331L132.471 30.9594L123.516 9.58437H126.711L132.741 24.4344L134.631 29.5194H133.506L135.306 24.4344L141.426 9.58437H144.621L131.571 40.6344ZM157.356 28.2594C158.856 28.2594 160.191 27.8994 161.361 27.1794C162.561 26.4594 163.491 25.4844 164.151 24.2544C164.841 22.9944 165.186 21.6294 165.186 20.1594C165.186 18.6894 164.841 17.3394 164.151 16.1094C163.491 14.8794 162.561 13.9044 161.361 13.1844C160.191 12.4644 158.856 12.1044 157.356 12.1044C155.886 12.1044 154.581 12.4644 153.441 13.1844C152.301 13.8744 151.401 14.8344 150.741 16.0644C150.111 17.2644 149.796 18.6294 149.796 20.1594C149.796 21.6894 150.111 23.0694 150.741 24.2994C151.401 25.5294 152.301 26.5044 153.441 27.2244C154.581 27.9144 155.886 28.2594 157.356 28.2594ZM157.446 9.04437C159.186 9.04437 160.746 9.43437 162.126 10.2144C163.536 10.9644 164.481 11.8944 164.961 13.0044L164.871 10.1244V9.58437H167.976V30.7344H165.006V30.3744L165.096 27.4944C164.646 28.5744 163.686 29.4894 162.216 30.2394C160.746 30.9594 159.156 31.3194 157.446 31.3194C155.376 31.3194 153.531 30.8094 151.911 29.7894C150.291 28.7694 149.016 27.4194 148.086 25.7394C147.186 24.0294 146.736 22.1694 146.736 20.1594C146.736 17.9694 147.186 16.0344 148.086 14.3544C149.016 12.6744 150.291 11.3694 151.911 10.4394C153.531 9.50937 155.376 9.04437 157.446 9.04437ZM178.025 12.5094C178.055 15.5694 178.055 18.6444 178.025 21.7344C177.995 23.8044 177.605 25.6044 176.855 27.1344C176.135 28.6344 174.995 30.0894 173.435 31.4994L171.59 29.1144C172.76 28.2144 173.63 27.1044 174.2 25.7844C174.8 24.4644 175.115 23.1144 175.145 21.7344C175.205 17.6844 175.205 13.6344 175.145 9.58437H190.805V30.7344H187.925V12.5094H178.025ZM198.764 28.0344C200.654 28.0644 202.589 28.0644 204.569 28.0344C206.399 28.0044 207.914 27.4344 209.114 26.3244C210.314 25.2144 210.914 23.6994 210.914 21.7794C210.914 20.5494 210.629 19.4994 210.059 18.6294C209.489 17.7294 208.769 17.0544 207.899 16.6044C207.029 16.1244 206.129 15.8544 205.199 15.7944C204.269 15.7644 203.459 15.7494 202.769 15.7494L201.464 13.0044C202.634 12.9744 203.789 12.9744 204.929 13.0044C206.639 13.0944 208.169 13.5294 209.519 14.3094C210.899 15.0594 211.994 16.0944 212.804 17.4144C213.614 18.7044 214.019 20.1594 214.019 21.7794C214.019 23.5494 213.629 25.1094 212.849 26.4594C212.099 27.8094 211.034 28.8594 209.654 29.6094C208.304 30.3294 206.744 30.7044 204.974 30.7344C201.914 30.7644 198.884 30.7644 195.884 30.7344V9.58437H198.764V28.0344ZM235.299 30.7344H232.464V21.5994H221.394V30.7344H218.514V9.58437H221.394V18.6744H232.464V9.58437H235.299V30.7344ZM250.478 12.0144C249.038 12.0144 247.703 12.3744 246.473 13.0944C245.273 13.7844 244.313 14.7594 243.593 16.0194C242.903 17.2494 242.558 18.6594 242.558 20.2494C242.558 21.9594 242.903 23.4444 243.593 24.7044C244.283 25.9344 245.213 26.8794 246.383 27.5394C247.583 28.1694 248.948 28.4844 250.478 28.4844C252.008 28.4844 253.358 28.1694 254.528 27.5394C255.728 26.8794 256.673 25.9344 257.363 24.7044C258.053 23.4444 258.398 21.9594 258.398 20.2494C258.398 18.6594 258.038 17.2494 257.318 16.0194C256.628 14.7594 255.668 13.7844 254.438 13.0944C253.238 12.3744 251.918 12.0144 250.478 12.0144ZM250.478 31.4994C248.408 31.4994 246.548 31.0194 244.898 30.0594C243.278 29.0994 241.988 27.7644 241.028 26.0544C240.098 24.3444 239.633 22.4094 239.633 20.2494C239.633 18.0594 240.113 16.1244 241.073 14.4444C242.033 12.7344 243.338 11.4144 244.988 10.4844C246.638 9.52437 248.468 9.04437 250.478 9.04437C252.488 9.04437 254.318 9.52437 255.968 10.4844C257.618 11.4144 258.923 12.7344 259.883 14.4444C260.843 16.1244 261.323 18.0594 261.323 20.2494C261.323 22.4094 260.843 24.3444 259.883 26.0544C258.953 27.7644 257.663 29.0994 256.013 30.0594C254.393 31.0194 252.548 31.4994 250.478 31.4994ZM283.669 30.7344H280.969V15.5694L281.194 11.4744L281.914 11.5644L269.539 30.7344H265.984V9.58437H268.684V24.7494L268.459 28.8444L267.739 28.7544L280.159 9.58437H283.669V30.7344ZM274.804 6.70437C272.584 6.70437 270.829 6.10437 269.539 4.90437C268.249 3.67437 267.604 2.03937 267.604 -0.000626266H270.394C270.394 1.31937 270.769 2.38437 271.519 3.19437C272.299 4.00437 273.394 4.40937 274.804 4.40937C276.214 4.40937 277.294 4.00437 278.044 3.19437C278.824 2.38437 279.214 1.31937 279.214 -0.000626266H282.004C282.004 2.03937 281.359 3.67437 280.069 4.90437C278.779 6.10437 277.024 6.70437 274.804 6.70437ZM317.132 27.6744C316.172 28.8744 314.912 29.8194 313.352 30.5094C311.792 31.1694 310.157 31.4994 308.447 31.4994C306.377 31.4994 304.517 31.0194 302.867 30.0594C301.247 29.0994 299.957 27.7644 298.997 26.0544C298.067 24.3444 297.602 22.4094 297.602 20.2494C297.602 18.0594 298.082 16.1244 299.042 14.4444C300.002 12.7344 301.307 11.4144 302.957 10.4844C304.607 9.52437 306.437 9.04437 308.447 9.04437C310.187 9.04437 311.822 9.37437 313.352 10.0344C314.882 10.6944 316.142 11.6394 317.132 12.8694L315.062 14.9844C314.342 14.0844 313.382 13.3644 312.182 12.8244C311.012 12.2844 309.767 12.0144 308.447 12.0144C307.037 12.0144 305.717 12.3744 304.487 13.0944C303.287 13.7844 302.327 14.7594 301.607 16.0194C300.887 17.2794 300.527 18.6894 300.527 20.2494C300.527 21.8994 300.872 23.3544 301.562 24.6144C302.252 25.8444 303.197 26.8044 304.397 27.4944C305.627 28.1844 306.977 28.5294 308.447 28.5294C309.707 28.5294 310.937 28.2594 312.137 27.7194C313.367 27.1494 314.342 26.4444 315.062 25.6044L317.132 27.6744ZM339.611 30.7344H336.911V15.5694L337.136 11.4744L337.856 11.5644L325.481 30.7344H321.926V9.58437H324.626V24.7494L324.401 28.8444L323.681 28.7544L336.101 9.58437H339.611V30.7344ZM364.066 27.6744C363.106 28.8744 361.846 29.8194 360.286 30.5094C358.726 31.1694 357.091 31.4994 355.381 31.4994C353.311 31.4994 351.451 31.0194 349.801 30.0594C348.181 29.0994 346.891 27.7644 345.931 26.0544C345.001 24.3444 344.536 22.4094 344.536 20.2494C344.536 18.0594 345.016 16.1244 345.976 14.4444C346.936 12.7344 348.241 11.4144 349.891 10.4844C351.541 9.52437 353.371 9.04437 355.381 9.04437C357.121 9.04437 358.756 9.37437 360.286 10.0344C361.816 10.6944 363.076 11.6394 364.066 12.8694L361.996 14.9844C361.276 14.0844 360.316 13.3644 359.116 12.8244C357.946 12.2844 356.701 12.0144 355.381 12.0144C353.971 12.0144 352.651 12.3744 351.421 13.0944C350.221 13.7844 349.261 14.7594 348.541 16.0194C347.821 17.2794 347.461 18.6894 347.461 20.2494C347.461 21.8994 347.806 23.3544 348.496 24.6144C349.186 25.8444 350.131 26.8044 351.331 27.4944C352.561 28.1844 353.911 28.5294 355.381 28.5294C356.641 28.5294 357.871 28.2594 359.071 27.7194C360.301 27.1494 361.276 26.4444 361.996 25.6044L364.066 27.6744ZM374.53 30.7344V12.4194H367.645V9.58437H384.25V12.4194H377.365V30.7344H374.53ZM407.484 27.6744C406.524 28.8744 405.264 29.8194 403.704 30.5094C402.174 31.1694 400.539 31.4994 398.799 31.4994C396.729 31.4994 394.869 31.0194 393.219 30.0594C391.569 29.0994 390.279 27.7644 389.349 26.0544C388.419 24.3444 387.954 22.4094 387.954 20.2494C387.954 18.0594 388.419 16.1244 389.349 14.4444C390.279 12.7344 391.539 11.4144 393.129 10.4844C394.749 9.52437 396.564 9.04437 398.574 9.04437C400.584 9.04437 402.384 9.50937 403.974 10.4394C405.594 11.3694 406.869 12.6744 407.799 14.3544C408.729 16.0044 409.194 17.8944 409.194 20.0244C409.194 20.6244 409.179 21.0594 409.149 21.3294H390.969C391.089 22.8294 391.509 24.1194 392.229 25.1994C392.949 26.2794 393.879 27.1044 395.019 27.6744C396.159 28.2144 397.419 28.4844 398.799 28.4844C400.059 28.4844 401.289 28.2144 402.489 27.6744C403.689 27.1344 404.649 26.4144 405.369 25.5144L407.484 27.6744ZM406.089 18.5394C405.909 17.2794 405.474 16.1544 404.784 15.1644C404.094 14.1744 403.209 13.4094 402.129 12.8694C401.049 12.2994 399.864 12.0144 398.574 12.0144C397.284 12.0144 396.099 12.2994 395.019 12.8694C393.969 13.4094 393.084 14.1744 392.364 15.1644C391.674 16.1544 391.254 17.2794 391.104 18.5394H406.089ZM417.049 9.58437L423.889 27.1344L424.609 30.0594H423.979L424.744 27.1344L431.584 9.58437H435.094V30.7344H432.349L432.304 17.7294L432.709 11.9694L433.249 12.0594L426.139 30.7344H422.449L415.384 12.1044L415.924 12.0144L416.329 17.7294V30.7344H413.584L413.539 9.58437H417.049ZM443.013 28.0344C444.903 28.0644 446.838 28.0644 448.818 28.0344C450.648 28.0044 452.163 27.4344 453.363 26.3244C454.563 25.2144 455.163 23.6994 455.163 21.7794C455.163 20.5494 454.878 19.4994 454.308 18.6294C453.738 17.7294 453.018 17.0544 452.148 16.6044C451.278 16.1244 450.378 15.8544 449.448 15.7944C448.518 15.7644 447.708 15.7494 447.018 15.7494L445.713 13.0044C446.883 12.9744 448.038 12.9744 449.178 13.0044C450.888 13.0944 452.418 13.5294 453.768 14.3094C455.148 15.0594 456.243 16.0944 457.053 17.4144C457.863 18.7044 458.268 20.1594 458.268 21.7794C458.268 23.5494 457.878 25.1094 457.098 26.4594C456.348 27.8094 455.283 28.8594 453.903 29.6094C452.553 30.3294 450.993 30.7044 449.223 30.7344C446.163 30.7644 443.133 30.7644 440.133 30.7344V9.58437H443.013V28.0344ZM463.623 9.58437V30.7344H460.878V9.58437H463.623ZM482.987 12.5094C483.017 13.9794 483.032 15.4494 483.032 16.9194C483.032 18.3894 483.017 19.8294 482.987 21.2394C482.957 22.7994 482.687 24.1794 482.177 25.3794C481.697 26.5794 480.902 27.7194 479.792 28.7994L478.757 28.1694L482.267 27.8094H493.067V12.5094H482.987ZM477.362 27.7644C478.292 26.8344 478.982 25.8144 479.432 24.7044C479.912 23.5944 480.167 22.4394 480.197 21.2394C480.287 17.3694 480.287 13.4844 480.197 9.58437H495.812V27.8094H498.512V36.1344H495.677V30.7344H480.197V36.1344H477.362V27.7644ZM512.48 12.0144C511.04 12.0144 509.705 12.3744 508.475 13.0944C507.275 13.7844 506.315 14.7594 505.595 16.0194C504.905 17.2494 504.56 18.6594 504.56 20.2494C504.56 21.9594 504.905 23.4444 505.595 24.7044C506.285 25.9344 507.215 26.8794 508.385 27.5394C509.585 28.1694 510.95 28.4844 512.48 28.4844C514.01 28.4844 515.36 28.1694 516.53 27.5394C517.73 26.8794 518.675 25.9344 519.365 24.7044C520.055 23.4444 520.4 21.9594 520.4 20.2494C520.4 18.6594 520.04 17.2494 519.32 16.0194C518.63 14.7594 517.67 13.7844 516.44 13.0944C515.24 12.3744 513.92 12.0144 512.48 12.0144ZM512.48 31.4994C510.41 31.4994 508.55 31.0194 506.9 30.0594C505.28 29.0994 503.99 27.7644 503.03 26.0544C502.1 24.3444 501.635 22.4094 501.635 20.2494C501.635 18.0594 502.115 16.1244 503.075 14.4444C504.035 12.7344 505.34 11.4144 506.99 10.4844C508.64 9.52437 510.47 9.04437 512.48 9.04437C514.49 9.04437 516.32 9.52437 517.97 10.4844C519.62 11.4144 520.925 12.7344 521.885 14.4444C522.845 16.1244 523.325 18.0594 523.325 20.2494C523.325 22.4094 522.845 24.3444 521.885 26.0544C520.955 27.7644 519.665 29.0994 518.015 30.0594C516.395 31.0194 514.55 31.4994 512.48 31.4994ZM539.784 9.58437V30.7344H536.994V9.58437H539.784ZM550.044 9.58437H553.734L545.094 19.6644L554.274 30.7344H550.629L541.629 19.6644L550.044 9.58437ZM568.391 28.2594C569.861 28.2594 571.166 27.9144 572.306 27.2244C573.446 26.5044 574.331 25.5294 574.961 24.2994C575.621 23.0694 575.951 21.6894 575.951 20.1594C575.951 18.6294 575.621 17.2644 574.961 16.0644C574.331 14.8344 573.446 13.8744 572.306 13.1844C571.166 12.4644 569.861 12.1044 568.391 12.1044C566.891 12.1044 565.541 12.4644 564.341 13.1844C563.171 13.9044 562.241 14.8794 561.551 16.1094C560.891 17.3394 560.561 18.6894 560.561 20.1594C560.561 21.6294 560.891 22.9794 561.551 24.2094C562.241 25.4394 563.171 26.4294 564.341 27.1794C565.541 27.8994 566.891 28.2594 568.391 28.2594ZM568.301 9.04437C570.401 9.04437 572.261 9.52437 573.881 10.4844C575.501 11.4144 576.761 12.7194 577.661 14.3994C578.561 16.0794 579.011 17.9994 579.011 20.1594C579.011 22.1994 578.546 24.0744 577.616 25.7844C576.686 27.4644 575.411 28.8144 573.791 29.8344C572.171 30.8244 570.341 31.3194 568.301 31.3194C566.591 31.3194 565.001 30.9594 563.531 30.2394C562.061 29.5194 561.101 28.5894 560.651 27.4494L560.741 30.3294V40.6344H557.771V9.58437H560.876V10.0794L560.786 12.9594C561.266 11.9094 562.211 10.9944 563.621 10.2144C565.031 9.43437 566.591 9.04437 568.301 9.04437ZM602.425 27.6744C601.465 28.8744 600.205 29.8194 598.645 30.5094C597.115 31.1694 595.48 31.4994 593.74 31.4994C591.67 31.4994 589.81 31.0194 588.16 30.0594C586.51 29.0994 585.22 27.7644 584.29 26.0544C583.36 24.3444 582.895 22.4094 582.895 20.2494C582.895 18.0594 583.36 16.1244 584.29 14.4444C585.22 12.7344 586.48 11.4144 588.07 10.4844C589.69 9.52437 591.505 9.04437 593.515 9.04437C595.525 9.04437 597.325 9.50937 598.915 10.4394C600.535 11.3694 601.81 12.6744 602.74 14.3544C603.67 16.0044 604.135 17.8944 604.135 20.0244C604.135 20.6244 604.12 21.0594 604.09 21.3294H585.91C586.03 22.8294 586.45 24.1194 587.17 25.1994C587.89 26.2794 588.82 27.1044 589.96 27.6744C591.1 28.2144 592.36 28.4844 593.74 28.4844C595 28.4844 596.23 28.2144 597.43 27.6744C598.63 27.1344 599.59 26.4144 600.31 25.5144L602.425 27.6744ZM601.03 18.5394C600.85 17.2794 600.415 16.1544 599.725 15.1644C599.035 14.1744 598.15 13.4094 597.07 12.8694C595.99 12.2994 594.805 12.0144 593.515 12.0144C592.225 12.0144 591.04 12.2994 589.96 12.8694C588.91 13.4094 588.025 14.1744 587.305 15.1644C586.615 16.1544 586.195 17.2794 586.045 18.5394H601.03ZM618.606 28.2594C620.106 28.2594 621.441 27.8994 622.611 27.1794C623.811 26.4594 624.741 25.4844 625.401 24.2544C626.091 22.9944 626.436 21.6294 626.436 20.1594C626.436 18.6894 626.091 17.3394 625.401 16.1094C624.741 14.8794 623.811 13.9044 622.611 13.1844C621.441 12.4644 620.106 12.1044 618.606 12.1044C617.136 12.1044 615.831 12.4644 614.691 13.1844C613.551 13.8744 612.651 14.8344 611.991 16.0644C611.361 17.2644 611.046 18.6294 611.046 20.1594C611.046 21.6894 611.361 23.0694 611.991 24.2994C612.651 25.5294 613.551 26.5044 614.691 27.2244C615.831 27.9144 617.136 28.2594 618.606 28.2594ZM618.696 9.04437C620.436 9.04437 621.996 9.43437 623.376 10.2144C624.786 10.9644 625.731 11.8944 626.211 13.0044L626.121 10.1244V9.58437H629.226V30.7344H626.256V30.3744L626.346 27.4944C625.896 28.5744 624.936 29.4894 623.466 30.2394C621.996 30.9594 620.406 31.3194 618.696 31.3194C616.626 31.3194 614.781 30.8094 613.161 29.7894C611.541 28.7694 610.266 27.4194 609.336 25.7394C608.436 24.0294 607.986 22.1694 607.986 20.1594C607.986 17.9694 608.436 16.0344 609.336 14.3544C610.266 12.6744 611.541 11.3694 613.161 10.4394C614.781 9.50937 616.626 9.04437 618.696 9.04437ZM640.355 30.7344V12.4194H633.47V9.58437H650.075V12.4194H643.19V30.7344H640.355ZM672.409 30.7344H669.709V15.5694L669.934 11.4744L670.654 11.5644L658.279 30.7344H654.724V9.58437H657.424V24.7494L657.199 28.8444L656.479 28.7544L668.899 9.58437H672.409V30.7344ZM680.709 18.5394C682.869 18.5694 685.029 18.5694 687.189 18.5394C688.419 18.5094 689.379 18.1944 690.069 17.5944C690.789 16.9644 691.149 16.1394 691.149 15.1194C691.149 14.2494 690.819 13.5894 690.159 13.1394C689.499 12.6594 688.539 12.4044 687.279 12.3744C685.089 12.3144 682.899 12.3144 680.709 12.3744V18.5394ZM680.754 27.9444C683.394 28.0044 686.034 28.0044 688.674 27.9444C689.994 27.9144 690.984 27.6144 691.644 27.0444C692.304 26.4744 692.634 25.6044 692.634 24.4344C692.634 23.4144 692.229 22.6194 691.419 22.0494C690.609 21.4794 689.634 21.1794 688.494 21.1494C685.914 21.0894 683.334 21.0894 680.754 21.1494V27.9444ZM678.054 9.58437C681.234 9.55437 684.429 9.55437 687.639 9.58437C688.839 9.61437 689.919 9.83937 690.879 10.2594C691.869 10.6494 692.634 11.2494 693.174 12.0594C693.744 12.8394 694.029 13.7844 694.029 14.8944C694.029 16.1244 693.774 17.1594 693.264 17.9994C692.754 18.8094 691.989 19.3344 690.969 19.5744C691.809 19.6944 692.574 19.9644 693.264 20.3844C693.954 20.7744 694.494 21.3444 694.884 22.0944C695.274 22.8144 695.469 23.6694 695.469 24.6594C695.469 26.6394 694.854 28.1394 693.624 29.1594C692.394 30.1794 690.819 30.7044 688.899 30.7344C685.269 30.7944 681.654 30.7944 678.054 30.7344V9.58437ZM710.366 12.0144C708.926 12.0144 707.591 12.3744 706.361 13.0944C705.161 13.7844 704.201 14.7594 703.481 16.0194C702.791 17.2494 702.446 18.6594 702.446 20.2494C702.446 21.9594 702.791 23.4444 703.481 24.7044C704.171 25.9344 705.101 26.8794 706.271 27.5394C707.471 28.1694 708.836 28.4844 710.366 28.4844C711.896 28.4844 713.246 28.1694 714.416 27.5394C715.616 26.8794 716.561 25.9344 717.251 24.7044C717.941 23.4444 718.286 21.9594 718.286 20.2494C718.286 18.6594 717.926 17.2494 717.206 16.0194C716.516 14.7594 715.556 13.7844 714.326 13.0944C713.126 12.3744 711.806 12.0144 710.366 12.0144ZM710.366 31.4994C708.296 31.4994 706.436 31.0194 704.786 30.0594C703.166 29.0994 701.876 27.7644 700.916 26.0544C699.986 24.3444 699.521 22.4094 699.521 20.2494C699.521 18.0594 700.001 16.1244 700.961 14.4444C701.921 12.7344 703.226 11.4144 704.876 10.4844C706.526 9.52437 708.356 9.04437 710.366 9.04437C712.376 9.04437 714.206 9.52437 715.856 10.4844C717.506 11.4144 718.811 12.7344 719.771 14.4444C720.731 16.1244 721.211 18.0594 721.211 20.2494C721.211 22.4094 720.731 24.3444 719.771 26.0544C718.841 27.7644 717.551 29.0994 715.901 30.0594C714.281 31.0194 712.436 31.4994 710.366 31.4994ZM728.301 18.5394C730.461 18.5694 732.621 18.5694 734.781 18.5394C736.011 18.5094 736.971 18.1944 737.661 17.5944C738.381 16.9644 738.741 16.1394 738.741 15.1194C738.741 14.2494 738.411 13.5894 737.751 13.1394C737.091 12.6594 736.131 12.4044 734.871 12.3744C732.681 12.3144 730.491 12.3144 728.301 12.3744V18.5394ZM728.346 27.9444C730.986 28.0044 733.626 28.0044 736.266 27.9444C737.586 27.9144 738.576 27.6144 739.236 27.0444C739.896 26.4744 740.226 25.6044 740.226 24.4344C740.226 23.4144 739.821 22.6194 739.011 22.0494C738.201 21.4794 737.226 21.1794 736.086 21.1494C733.506 21.0894 730.926 21.0894 728.346 21.1494V27.9444ZM725.646 9.58437C728.826 9.55437 732.021 9.55437 735.231 9.58437C736.431 9.61437 737.511 9.83937 738.471 10.2594C739.461 10.6494 740.226 11.2494 740.766 12.0594C741.336 12.8394 741.621 13.7844 741.621 14.8944C741.621 16.1244 741.366 17.1594 740.856 17.9994C740.346 18.8094 739.581 19.3344 738.561 19.5744C739.401 19.6944 740.166 19.9644 740.856 20.3844C741.546 20.7744 742.086 21.3444 742.476 22.0944C742.866 22.8144 743.061 23.6694 743.061 24.6594C743.061 26.6394 742.446 28.1394 741.216 29.1594C739.986 30.1794 738.411 30.7044 736.491 30.7344C732.861 30.7944 729.246 30.7944 725.646 30.7344V9.58437ZM750.904 26.4144V30.7344L748.384 36.5844H745.909L748.024 30.7344H746.494V26.4144H750.904ZM3.95914 57.5844V78.7344H1.16914V57.5844H3.95914ZM14.2191 57.5844H17.9091L9.26914 67.6644L18.4491 78.7344H14.8041L5.80414 67.6644L14.2191 57.5844ZM31.3666 60.0144C29.9266 60.0144 28.5916 60.3744 27.3616 61.0944C26.1616 61.7844 25.2016 62.7594 24.4816 64.0194C23.7916 65.2494 23.4466 66.6594 23.4466 68.2494C23.4466 69.9594 23.7916 71.4444 24.4816 72.7044C25.1716 73.9344 26.1016 74.8794 27.2716 75.5394C28.4716 76.1694 29.8366 76.4844 31.3666 76.4844C32.8966 76.4844 34.2466 76.1694 35.4166 75.5394C36.6166 74.8794 37.5616 73.9344 38.2516 72.7044C38.9416 71.4444 39.2866 69.9594 39.2866 68.2494C39.2866 66.6594 38.9266 65.2494 38.2066 64.0194C37.5166 62.7594 36.5566 61.7844 35.3266 61.0944C34.1266 60.3744 32.8066 60.0144 31.3666 60.0144ZM31.3666 79.4994C29.2966 79.4994 27.4366 79.0194 25.7866 78.0594C24.1666 77.0994 22.8766 75.7644 21.9166 74.0544C20.9866 72.3444 20.5216 70.4094 20.5216 68.2494C20.5216 66.0594 21.0016 64.1244 21.9616 62.4444C22.9216 60.7344 24.2266 59.4144 25.8766 58.4844C27.5266 57.5244 29.3566 57.0444 31.3666 57.0444C33.3766 57.0444 35.2066 57.5244 36.8566 58.4844C38.5066 59.4144 39.8116 60.7344 40.7716 62.4444C41.7316 64.1244 42.2116 66.0594 42.2116 68.2494C42.2116 70.4094 41.7316 72.3444 40.7716 74.0544C39.8416 75.7644 38.5516 77.0994 36.9016 78.0594C35.2816 79.0194 33.4366 79.4994 31.3666 79.4994ZM52.5423 78.7344V60.4194H45.6573V57.5844H62.2623V60.4194H55.3773V78.7344H52.5423ZM76.5863 60.0144C75.1463 60.0144 73.8113 60.3744 72.5813 61.0944C71.3813 61.7844 70.4213 62.7594 69.7013 64.0194C69.0113 65.2494 68.6663 66.6594 68.6663 68.2494C68.6663 69.9594 69.0113 71.4444 69.7013 72.7044C70.3913 73.9344 71.3213 74.8794 72.4913 75.5394C73.6913 76.1694 75.0563 76.4844 76.5863 76.4844C78.1163 76.4844 79.4663 76.1694 80.6363 75.5394C81.8363 74.8794 82.7813 73.9344 83.4713 72.7044C84.1613 71.4444 84.5063 69.9594 84.5063 68.2494C84.5063 66.6594 84.1463 65.2494 83.4263 64.0194C82.7363 62.7594 81.7763 61.7844 80.5463 61.0944C79.3463 60.3744 78.0263 60.0144 76.5863 60.0144ZM76.5863 79.4994C74.5163 79.4994 72.6563 79.0194 71.0063 78.0594C69.3863 77.0994 68.0963 75.7644 67.1363 74.0544C66.2063 72.3444 65.7413 70.4094 65.7413 68.2494C65.7413 66.0594 66.2213 64.1244 67.1813 62.4444C68.1413 60.7344 69.4463 59.4144 71.0963 58.4844C72.7463 57.5244 74.5763 57.0444 76.5863 57.0444C78.5963 57.0444 80.4263 57.5244 82.0763 58.4844C83.7263 59.4144 85.0313 60.7344 85.9913 62.4444C86.9513 64.1244 87.4313 66.0594 87.4313 68.2494C87.4313 70.4094 86.9513 72.3444 85.9913 74.0544C85.0613 75.7644 83.7713 77.0994 82.1213 78.0594C80.5013 79.0194 78.6563 79.4994 76.5863 79.4994ZM102.307 76.2594C103.777 76.2594 105.082 75.9144 106.222 75.2244C107.362 74.5044 108.247 73.5294 108.877 72.2994C109.537 71.0694 109.867 69.6894 109.867 68.1594C109.867 66.6294 109.537 65.2644 108.877 64.0644C108.247 62.8344 107.362 61.8744 106.222 61.1844C105.082 60.4644 103.777 60.1044 102.307 60.1044C100.807 60.1044 99.457 60.4644 98.257 61.1844C97.087 61.9044 96.157 62.8794 95.467 64.1094C94.807 65.3394 94.477 66.6894 94.477 68.1594C94.477 69.6294 94.807 70.9794 95.467 72.2094C96.157 73.4394 97.087 74.4294 98.257 75.1794C99.457 75.8994 100.807 76.2594 102.307 76.2594ZM102.217 57.0444C104.317 57.0444 106.177 57.5244 107.797 58.4844C109.417 59.4144 110.677 60.7194 111.577 62.3994C112.477 64.0794 112.927 65.9994 112.927 68.1594C112.927 70.1994 112.462 72.0744 111.532 73.7844C110.602 75.4644 109.327 76.8144 107.707 77.8344C106.087 78.8244 104.257 79.3194 102.217 79.3194C100.507 79.3194 98.917 78.9594 97.447 78.2394C95.977 77.5194 95.017 76.5894 94.567 75.4494L94.657 78.3294V88.6344H91.687V57.5844H94.792V58.0794L94.702 60.9594C95.182 59.9094 96.127 58.9944 97.537 58.2144C98.947 57.4344 100.507 57.0444 102.217 57.0444ZM120.366 76.0344C122.256 76.0644 124.191 76.0644 126.171 76.0344C128.001 76.0044 129.516 75.4344 130.716 74.3244C131.916 73.2144 132.516 71.6994 132.516 69.7794C132.516 68.5494 132.231 67.4994 131.661 66.6294C131.091 65.7294 130.371 65.0544 129.501 64.6044C128.631 64.1244 127.731 63.8544 126.801 63.7944C125.871 63.7644 125.061 63.7494 124.371 63.7494L123.066 61.0044C124.236 60.9744 125.391 60.9744 126.531 61.0044C128.241 61.0944 129.771 61.5294 131.121 62.3094C132.501 63.0594 133.596 64.0944 134.406 65.4144C135.216 66.7044 135.621 68.1594 135.621 69.7794C135.621 71.5494 135.231 73.1094 134.451 74.4594C133.701 75.8094 132.636 76.8594 131.256 77.6094C129.906 78.3294 128.346 78.7044 126.576 78.7344C123.516 78.7644 120.486 78.7644 117.486 78.7344V57.5844H120.366V76.0344ZM140.976 57.5844V78.7344H138.231V57.5844H140.976ZM166.092 75.6744C165.132 76.8744 163.872 77.8194 162.312 78.5094C160.782 79.1694 159.147 79.4994 157.407 79.4994C155.337 79.4994 153.477 79.0194 151.827 78.0594C150.177 77.0994 148.887 75.7644 147.957 74.0544C147.027 72.3444 146.562 70.4094 146.562 68.2494C146.562 66.0594 147.027 64.1244 147.957 62.4444C148.887 60.7344 150.147 59.4144 151.737 58.4844C153.357 57.5244 155.172 57.0444 157.182 57.0444C159.192 57.0444 160.992 57.5094 162.582 58.4394C164.202 59.3694 165.477 60.6744 166.407 62.3544C167.337 64.0044 167.802 65.8944 167.802 68.0244C167.802 68.6244 167.787 69.0594 167.757 69.3294H149.577C149.697 70.8294 150.117 72.1194 150.837 73.1994C151.557 74.2794 152.487 75.1044 153.627 75.6744C154.767 76.2144 156.027 76.4844 157.407 76.4844C158.667 76.4844 159.897 76.2144 161.097 75.6744C162.297 75.1344 163.257 74.4144 163.977 73.5144L166.092 75.6744ZM164.697 66.5394C164.517 65.2794 164.082 64.1544 163.392 63.1644C162.702 62.1744 161.817 61.4094 160.737 60.8694C159.657 60.2994 158.472 60.0144 157.182 60.0144C155.892 60.0144 154.707 60.2994 153.627 60.8694C152.577 61.4094 151.692 62.1744 150.972 63.1644C150.282 64.1544 149.862 65.2794 149.712 66.5394H164.697ZM191.911 76.2594C193.381 76.2594 194.686 75.9144 195.826 75.2244C196.966 74.5044 197.851 73.5294 198.481 72.2994C199.141 71.0694 199.471 69.6894 199.471 68.1594C199.471 66.6294 199.141 65.2644 198.481 64.0644C197.851 62.8344 196.966 61.8744 195.826 61.1844C194.686 60.4644 193.381 60.1044 191.911 60.1044C190.411 60.1044 189.061 60.4644 187.861 61.1844C186.691 61.9044 185.761 62.8794 185.071 64.1094C184.411 65.3394 184.081 66.6894 184.081 68.1594C184.081 69.6294 184.411 70.9794 185.071 72.2094C185.761 73.4394 186.691 74.4294 187.861 75.1794C189.061 75.8994 190.411 76.2594 191.911 76.2594ZM191.821 57.0444C193.921 57.0444 195.781 57.5244 197.401 58.4844C199.021 59.4144 200.281 60.7194 201.181 62.3994C202.081 64.0794 202.531 65.9994 202.531 68.1594C202.531 70.1994 202.066 72.0744 201.136 73.7844C200.206 75.4644 198.931 76.8144 197.311 77.8344C195.691 78.8244 193.861 79.3194 191.821 79.3194C190.111 79.3194 188.521 78.9594 187.051 78.2394C185.581 77.5194 184.621 76.5894 184.171 75.4494L184.261 78.3294V88.6344H181.291V57.5844H184.396V58.0794L184.306 60.9594C184.786 59.9094 185.731 58.9944 187.141 58.2144C188.551 57.4344 190.111 57.0444 191.821 57.0444ZM216.946 76.2594C218.446 76.2594 219.781 75.8994 220.951 75.1794C222.151 74.4594 223.081 73.4844 223.741 72.2544C224.431 70.9944 224.776 69.6294 224.776 68.1594C224.776 66.6894 224.431 65.3394 223.741 64.1094C223.081 62.8794 222.151 61.9044 220.951 61.1844C219.781 60.4644 218.446 60.1044 216.946 60.1044C215.476 60.1044 214.171 60.4644 213.031 61.1844C211.891 61.8744 210.991 62.8344 210.331 64.0644C209.701 65.2644 209.386 66.6294 209.386 68.1594C209.386 69.6894 209.701 71.0694 210.331 72.2994C210.991 73.5294 211.891 74.5044 213.031 75.2244C214.171 75.9144 215.476 76.2594 216.946 76.2594ZM217.036 57.0444C218.776 57.0444 220.336 57.4344 221.716 58.2144C223.126 58.9644 224.071 59.8944 224.551 61.0044L224.461 58.1244V57.5844H227.566V78.7344H224.596V78.3744L224.686 75.4944C224.236 76.5744 223.276 77.4894 221.806 78.2394C220.336 78.9594 218.746 79.3194 217.036 79.3194C214.966 79.3194 213.121 78.8094 211.501 77.7894C209.881 76.7694 208.606 75.4194 207.676 73.7394C206.776 72.0294 206.326 70.1694 206.326 68.1594C206.326 65.9694 206.776 64.0344 207.676 62.3544C208.606 60.6744 209.881 59.3694 211.501 58.4394C213.121 57.5094 214.966 57.0444 217.036 57.0444ZM243.6 60.0594C242.19 60.0594 240.87 60.4044 239.64 61.0944C238.44 61.7844 237.48 62.7594 236.76 64.0194C236.07 65.2494 235.725 66.6294 235.725 68.1594V68.2494C235.725 69.8994 236.07 71.3544 236.76 72.6144C237.45 73.8744 238.38 74.8344 239.55 75.4944C240.75 76.1544 242.1 76.4844 243.6 76.4844C245.1 76.4844 246.435 76.1544 247.605 75.4944C248.805 74.8344 249.75 73.8744 250.44 72.6144C251.13 71.3544 251.475 69.8994 251.475 68.2494C251.475 66.6894 251.115 65.2794 250.395 64.0194C249.705 62.7594 248.745 61.7844 247.515 61.0944C246.315 60.4044 245.01 60.0594 243.6 60.0594ZM232.755 67.9344C232.755 62.4444 232.77 58.2894 232.8 55.4694C232.83 52.1694 233.715 49.6344 235.455 47.8644C237.225 46.0644 239.64 45.1644 242.7 45.1644C244.38 45.1644 245.895 45.3744 247.245 45.7944C248.625 46.1844 249.9 46.7844 251.07 47.5944L249.54 49.9344C248.76 49.4544 247.725 49.0494 246.435 48.7194C245.145 48.3594 243.9 48.1794 242.7 48.1794C240.54 48.1794 238.815 48.7944 237.525 50.0244C236.265 51.2244 235.59 53.0394 235.5 55.4694C235.47 56.1294 235.455 57.3444 235.455 59.1144L235.095 64.0194L234.645 62.9394C235.275 61.0494 236.37 59.5944 237.93 58.5744C239.52 57.5544 241.41 57.0444 243.6 57.0444C245.61 57.0444 247.44 57.5244 249.09 58.4844C250.74 59.4144 252.045 60.7344 253.005 62.4444C253.965 64.1244 254.445 66.0594 254.445 68.2494C254.445 70.4094 253.965 72.3444 253.005 74.0544C252.075 75.7644 250.785 77.0994 249.135 78.0594C247.515 79.0194 245.67 79.4994 243.6 79.4994C241.53 79.4994 239.67 79.0194 238.02 78.0594C236.4 77.0994 235.11 75.7644 234.15 74.0544C233.22 72.3144 232.755 70.3494 232.755 68.1594V67.9344ZM269.243 60.0144C267.803 60.0144 266.468 60.3744 265.238 61.0944C264.038 61.7844 263.078 62.7594 262.358 64.0194C261.668 65.2494 261.323 66.6594 261.323 68.2494C261.323 69.9594 261.668 71.4444 262.358 72.7044C263.048 73.9344 263.978 74.8794 265.148 75.5394C266.348 76.1694 267.713 76.4844 269.243 76.4844C270.773 76.4844 272.123 76.1694 273.293 75.5394C274.493 74.8794 275.438 73.9344 276.128 72.7044C276.818 71.4444 277.163 69.9594 277.163 68.2494C277.163 66.6594 276.803 65.2494 276.083 64.0194C275.393 62.7594 274.433 61.7844 273.203 61.0944C272.003 60.3744 270.683 60.0144 269.243 60.0144ZM269.243 79.4994C267.173 79.4994 265.313 79.0194 263.663 78.0594C262.043 77.0994 260.753 75.7644 259.793 74.0544C258.863 72.3444 258.398 70.4094 258.398 68.2494C258.398 66.0594 258.878 64.1244 259.838 62.4444C260.798 60.7344 262.103 59.4144 263.753 58.4844C265.403 57.5244 267.233 57.0444 269.243 57.0444C271.253 57.0444 273.083 57.5244 274.733 58.4844C276.383 59.4144 277.688 60.7344 278.648 62.4444C279.608 64.1244 280.088 66.0594 280.088 68.2494C280.088 70.4094 279.608 72.3444 278.648 74.0544C277.718 75.7644 276.428 77.0994 274.778 78.0594C273.158 79.0194 271.313 79.4994 269.243 79.4994ZM290.418 78.7344V60.4194H283.533V57.5844H300.138V60.4194H293.253V78.7344H290.418ZM314.372 76.2594C315.872 76.2594 317.207 75.8994 318.377 75.1794C319.577 74.4594 320.507 73.4844 321.167 72.2544C321.857 70.9944 322.202 69.6294 322.202 68.1594C322.202 66.6894 321.857 65.3394 321.167 64.1094C320.507 62.8794 319.577 61.9044 318.377 61.1844C317.207 60.4644 315.872 60.1044 314.372 60.1044C312.902 60.1044 311.597 60.4644 310.457 61.1844C309.317 61.8744 308.417 62.8344 307.757 64.0644C307.127 65.2644 306.812 66.6294 306.812 68.1594C306.812 69.6894 307.127 71.0694 307.757 72.2994C308.417 73.5294 309.317 74.5044 310.457 75.2244C311.597 75.9144 312.902 76.2594 314.372 76.2594ZM314.462 57.0444C316.202 57.0444 317.762 57.4344 319.142 58.2144C320.552 58.9644 321.497 59.8944 321.977 61.0044L321.887 58.1244V57.5844H324.992V78.7344H322.022V78.3744L322.112 75.4944C321.662 76.5744 320.702 77.4894 319.232 78.2394C317.762 78.9594 316.172 79.3194 314.462 79.3194C312.392 79.3194 310.547 78.8094 308.927 77.7894C307.307 76.7694 306.032 75.4194 305.102 73.7394C304.202 72.0294 303.752 70.1694 303.752 68.1594C303.752 65.9694 304.202 64.0344 305.102 62.3544C306.032 60.6744 307.307 59.3694 308.927 58.4394C310.547 57.5094 312.392 57.0444 314.462 57.0444ZM345.976 60.0594C344.566 60.0594 343.246 60.4044 342.016 61.0944C340.816 61.7844 339.856 62.7594 339.136 64.0194C338.446 65.2494 338.101 66.6594 338.101 68.2494C338.101 69.9594 338.446 71.4444 339.136 72.7044C339.826 73.9344 340.756 74.8794 341.926 75.5394C343.126 76.1694 344.476 76.4844 345.976 76.4844C347.476 76.4844 348.826 76.1694 350.026 75.5394C351.226 74.8794 352.171 73.9344 352.861 72.7044C353.551 71.4444 353.896 69.9594 353.896 68.2494C353.896 66.6594 353.536 65.2494 352.816 64.0194C352.096 62.7594 351.136 61.7844 349.936 61.0944C348.736 60.4044 347.416 60.0594 345.976 60.0594ZM329.551 57.5844H332.251V66.8994H335.221C335.401 64.9494 335.986 63.2394 336.976 61.7694C337.966 60.2694 339.241 59.1144 340.801 58.3044C342.391 57.4644 344.116 57.0444 345.976 57.0444C347.986 57.0444 349.816 57.5244 351.466 58.4844C353.116 59.4144 354.421 60.7344 355.381 62.4444C356.341 64.1244 356.821 66.0594 356.821 68.2494C356.821 70.4094 356.341 72.3444 355.381 74.0544C354.451 75.7644 353.161 77.0994 351.511 78.0594C349.891 79.0194 348.046 79.4994 345.976 79.4994C344.086 79.4994 342.346 79.0794 340.756 78.2394C339.196 77.3994 337.921 76.2294 336.931 74.7294C335.971 73.2294 335.401 71.5044 335.221 69.5544H332.251V78.7344H329.551V57.5844ZM367.41 78.7344V60.4194H360.525V57.5844H377.13V60.4194H370.245V78.7344H367.41ZM407.213 78.7344H404.378V69.5994H393.308V78.7344H390.428V57.5844H393.308V66.6744H404.378V57.5844H407.213V78.7344ZM422.302 76.2594C423.802 76.2594 425.137 75.8994 426.307 75.1794C427.507 74.4594 428.437 73.4844 429.097 72.2544C429.787 70.9944 430.132 69.6294 430.132 68.1594C430.132 66.6894 429.787 65.3394 429.097 64.1094C428.437 62.8794 427.507 61.9044 426.307 61.1844C425.137 60.4644 423.802 60.1044 422.302 60.1044C420.832 60.1044 419.527 60.4644 418.387 61.1844C417.247 61.8744 416.347 62.8344 415.687 64.0644C415.057 65.2644 414.742 66.6294 414.742 68.1594C414.742 69.6894 415.057 71.0694 415.687 72.2994C416.347 73.5294 417.247 74.5044 418.387 75.2244C419.527 75.9144 420.832 76.2594 422.302 76.2594ZM422.392 57.0444C424.132 57.0444 425.692 57.4344 427.072 58.2144C428.482 58.9644 429.427 59.8944 429.907 61.0044L429.817 58.1244V57.5844H432.922V78.7344H429.952V78.3744L430.042 75.4944C429.592 76.5744 428.632 77.4894 427.162 78.2394C425.692 78.9594 424.102 79.3194 422.392 79.3194C420.322 79.3194 418.477 78.8094 416.857 77.7894C415.237 76.7694 413.962 75.4194 413.032 73.7394C412.132 72.0294 411.682 70.1694 411.682 68.1594C411.682 65.9694 412.132 64.0344 413.032 62.3544C413.962 60.6744 415.237 59.3694 416.857 58.4394C418.477 57.5094 420.322 57.0444 422.392 57.0444ZM449.775 78.7344H446.895V57.5844H463.995V78.7344H461.115V60.5094H449.775V78.7344ZM478.994 60.0144C477.554 60.0144 476.219 60.3744 474.989 61.0944C473.789 61.7844 472.829 62.7594 472.109 64.0194C471.419 65.2494 471.074 66.6594 471.074 68.2494C471.074 69.9594 471.419 71.4444 472.109 72.7044C472.799 73.9344 473.729 74.8794 474.899 75.5394C476.099 76.1694 477.464 76.4844 478.994 76.4844C480.524 76.4844 481.874 76.1694 483.044 75.5394C484.244 74.8794 485.189 73.9344 485.879 72.7044C486.569 71.4444 486.914 69.9594 486.914 68.2494C486.914 66.6594 486.554 65.2494 485.834 64.0194C485.144 62.7594 484.184 61.7844 482.954 61.0944C481.754 60.3744 480.434 60.0144 478.994 60.0144ZM478.994 79.4994C476.924 79.4994 475.064 79.0194 473.414 78.0594C471.794 77.0994 470.504 75.7644 469.544 74.0544C468.614 72.3444 468.149 70.4094 468.149 68.2494C468.149 66.0594 468.629 64.1244 469.589 62.4444C470.549 60.7344 471.854 59.4144 473.504 58.4844C475.154 57.5244 476.984 57.0444 478.994 57.0444C481.004 57.0444 482.834 57.5244 484.484 58.4844C486.134 59.4144 487.439 60.7344 488.399 62.4444C489.359 64.1244 489.839 66.0594 489.839 68.2494C489.839 70.4094 489.359 72.3444 488.399 74.0544C487.469 75.7644 486.179 77.0994 484.529 78.0594C482.909 79.0194 481.064 79.4994 478.994 79.4994ZM497.289 57.5844V78.7344H494.499V57.5844H497.289ZM507.549 57.5844H511.239L502.599 67.6644L511.779 78.7344H508.134L499.134 67.6644L507.549 57.5844ZM524.607 76.2594C526.107 76.2594 527.442 75.8994 528.612 75.1794C529.812 74.4594 530.742 73.4844 531.402 72.2544C532.092 70.9944 532.437 69.6294 532.437 68.1594C532.437 66.6894 532.092 65.3394 531.402 64.1094C530.742 62.8794 529.812 61.9044 528.612 61.1844C527.442 60.4644 526.107 60.1044 524.607 60.1044C523.137 60.1044 521.832 60.4644 520.692 61.1844C519.552 61.8744 518.652 62.8344 517.992 64.0644C517.362 65.2644 517.047 66.6294 517.047 68.1594C517.047 69.6894 517.362 71.0694 517.992 72.2994C518.652 73.5294 519.552 74.5044 520.692 75.2244C521.832 75.9144 523.137 76.2594 524.607 76.2594ZM524.697 57.0444C526.437 57.0444 527.997 57.4344 529.377 58.2144C530.787 58.9644 531.732 59.8944 532.212 61.0044L532.122 58.1244V57.5844H535.227V78.7344H532.257V78.3744L532.347 75.4944C531.897 76.5744 530.937 77.4894 529.467 78.2394C527.997 78.9594 526.407 79.3194 524.697 79.3194C522.627 79.3194 520.782 78.8094 519.162 77.7894C517.542 76.7694 516.267 75.4194 515.337 73.7394C514.437 72.0294 513.987 70.1694 513.987 68.1594C513.987 65.9694 514.437 64.0344 515.337 62.3544C516.267 60.6744 517.542 59.3694 519.162 58.4394C520.782 57.5094 522.627 57.0444 524.697 57.0444ZM543.431 78.1494C541.751 77.3094 540.416 76.0794 539.426 74.4594L541.946 72.7944C542.696 74.0244 543.731 74.9694 545.051 75.6294C546.371 76.2894 547.826 76.6194 549.416 76.6194C551.246 76.6194 552.821 76.3044 554.141 75.6744C555.461 75.0144 556.121 74.0844 556.121 72.8844C556.121 72.1044 555.881 71.4444 555.401 70.9044C554.951 70.3344 554.351 69.8994 553.601 69.5994C552.851 69.2994 552.041 69.1194 551.171 69.0594C550.541 69.0294 549.896 69.0144 549.236 69.0144V66.3594C549.896 66.3294 550.541 66.3144 551.171 66.3144C552.431 66.2244 553.436 65.9094 554.186 65.3694C554.936 64.7994 555.311 64.0344 555.311 63.0744C555.311 61.9944 554.741 61.1694 553.601 60.5994C552.461 60.0294 551.066 59.7444 549.416 59.7444C547.856 59.7444 546.476 60.1044 545.276 60.8244C544.076 61.5144 543.041 62.5344 542.171 63.8844L539.651 62.2194C540.701 60.5394 541.991 59.2494 543.521 58.3494C545.081 57.4194 547.046 56.9544 549.416 56.9544C552.116 56.9544 554.306 57.5094 555.986 58.6194C557.696 59.6994 558.551 61.1844 558.551 63.0744C558.551 64.0644 558.206 64.9644 557.516 65.7744C556.826 66.5844 556.001 67.2144 555.041 67.6644C556.181 67.9944 557.201 68.6244 558.101 69.5544C559.001 70.4844 559.451 71.6244 559.451 72.9744C559.451 75.0444 558.521 76.6344 556.661 77.7444C554.831 78.8544 552.416 79.4094 549.416 79.4094C547.136 79.4094 545.141 78.9894 543.431 78.1494ZM574.177 76.2594C575.677 76.2594 577.012 75.8994 578.182 75.1794C579.382 74.4594 580.312 73.4844 580.972 72.2544C581.662 70.9944 582.007 69.6294 582.007 68.1594C582.007 66.6894 581.662 65.3394 580.972 64.1094C580.312 62.8794 579.382 61.9044 578.182 61.1844C577.012 60.4644 575.677 60.1044 574.177 60.1044C572.707 60.1044 571.402 60.4644 570.262 61.1844C569.122 61.8744 568.222 62.8344 567.562 64.0644C566.932 65.2644 566.617 66.6294 566.617 68.1594C566.617 69.6894 566.932 71.0694 567.562 72.2994C568.222 73.5294 569.122 74.5044 570.262 75.2244C571.402 75.9144 572.707 76.2594 574.177 76.2594ZM574.267 57.0444C576.007 57.0444 577.567 57.4344 578.947 58.2144C580.357 58.9644 581.302 59.8944 581.782 61.0044L581.692 58.1244V57.5844H584.797V78.7344H581.827V78.3744L581.917 75.4944C581.467 76.5744 580.507 77.4894 579.037 78.2394C577.567 78.9594 575.977 79.3194 574.267 79.3194C572.197 79.3194 570.352 78.8094 568.732 77.7894C567.112 76.7694 565.837 75.4194 564.907 73.7394C564.007 72.0294 563.557 70.1694 563.557 68.1594C563.557 65.9694 564.007 64.0344 564.907 62.3544C565.837 60.6744 567.112 59.3694 568.732 58.4394C570.352 57.5094 572.197 57.0444 574.267 57.0444ZM595.926 78.7344V60.4194H589.041V57.5844H605.646V60.4194H598.761V78.7344H595.926ZM628.88 75.6744C627.92 76.8744 626.66 77.8194 625.1 78.5094C623.57 79.1694 621.935 79.4994 620.195 79.4994C618.125 79.4994 616.265 79.0194 614.615 78.0594C612.965 77.0994 611.675 75.7644 610.745 74.0544C609.815 72.3444 609.35 70.4094 609.35 68.2494C609.35 66.0594 609.815 64.1244 610.745 62.4444C611.675 60.7344 612.935 59.4144 614.525 58.4844C616.145 57.5244 617.96 57.0444 619.97 57.0444C621.98 57.0444 623.78 57.5094 625.37 58.4394C626.99 59.3694 628.265 60.6744 629.195 62.3544C630.125 64.0044 630.59 65.8944 630.59 68.0244C630.59 68.6244 630.575 69.0594 630.545 69.3294H612.365C612.485 70.8294 612.905 72.1194 613.625 73.1994C614.345 74.2794 615.275 75.1044 616.415 75.6744C617.555 76.2144 618.815 76.4844 620.195 76.4844C621.455 76.4844 622.685 76.2144 623.885 75.6744C625.085 75.1344 626.045 74.4144 626.765 73.5144L628.88 75.6744ZM627.485 66.5394C627.305 65.2794 626.87 64.1544 626.18 63.1644C625.49 62.1744 624.605 61.4094 623.525 60.8694C622.445 60.2994 621.26 60.0144 619.97 60.0144C618.68 60.0144 617.495 60.2994 616.415 60.8694C615.365 61.4094 614.48 62.1744 613.76 63.1644C613.07 64.1544 612.65 65.2794 612.5 66.5394H627.485ZM640.066 60.5094C640.096 63.5694 640.096 66.6444 640.066 69.7344C640.036 71.8044 639.646 73.6044 638.896 75.1344C638.176 76.6344 637.036 78.0894 635.476 79.4994L633.631 77.1144C634.801 76.2144 635.671 75.1044 636.241 73.7844C636.841 72.4644 637.156 71.1144 637.186 69.7344C637.246 65.6844 637.246 61.6344 637.186 57.5844H652.846V78.7344H649.966V60.5094H640.066ZM675.881 78.7344H673.181V63.5694L673.406 59.4744L674.126 59.5644L661.751 78.7344H658.196V57.5844H660.896V72.7494L660.671 76.8444L659.951 76.7544L672.371 57.5844H675.881V78.7344Z" fill="black"/>
</svg>
